<svg xmlns="http://www.w3.org/2000/svg" fill="currentColor" preserveAspectRatio="none">
  <defs>
    <pattern id="divider-dots" viewBox="0 0 8 56" width="8" height="56" patternUnits="userSpaceOnUse">
      <path d="M8.00268402,49.5846887 L8.00268402,54.8508872 C7.83969331,54.8485841 7.67740483,54.7852486 7.553037,54.6608808 L5.56881759,52.6766614 C5.3153888,52.4232326 5.3153888,52.0123433 5.56881759,51.7589145 L7.553037,49.7746951 C7.67740483,49.6503273 7.83969331,49.5869918 8.00268402,49.5846887 Z" opacity="0.95"></path>
      <path d="M8.00268426,42.2884568 L8.00268426,46.9694914 C7.85814845,46.9671937 7.71431156,46.9109006 7.60402311,46.8006122 L5.84027252,45.0368616 C5.61500249,44.8115915 5.61500249,44.4463567 5.84027252,44.2210866 L7.60402311,42.457336 C7.71431156,42.3470476 7.85814845,42.2907545 8.00268426,42.2884568 Z" opacity="0.85"></path>
      <path d="M8.00279254,34.9922253 L8.00279254,39.0880952 C7.8766755,39.0858308 7.75124537,39.0365802 7.65500869,38.9403436 L6.11172692,37.3970618 C5.91461564,37.1999505 5.91461564,36.88037 6.11172692,36.6832587 L7.65500869,35.139977 C7.75124537,35.0437403 7.8766755,34.9944897 8.00279254,34.9922253 Z" opacity="0.75"></path>
      <path d="M8.00274824,27.6959999 L8.00274824,31.2066929 C7.89510233,31.2044268 7.78814097,31.1622208 7.70599509,31.080075 L6.38318215,29.757262 C6.21422963,29.5883095 6.21422963,29.3143833 6.38318215,29.1454308 L7.70599509,27.8226179 C7.78814097,27.740472 7.89510233,27.698266 8.00274824,27.6959999 Z" opacity="0.55"></path>
      <path d="M8.00268464,20.3997808 L8.00268464,23.3252844 C7.91351729,23.323016 7.82503112,23.2878567 7.7569808,23.2198064 L6.65463668,22.1174622 C6.51384291,21.9766685 6.51384291,21.7483967 6.65463668,21.6076029 L7.7569808,20.5052588 C7.80234768,20.4598919 7.85679716,20.4291432 7.914476,20.4130128 L8.00268464,20.3997808 Z" opacity="0.45"></path>
      <path d="M8.00268496,13.1035701 L8.00268496,15.4438674 C7.9319765,15.4416186 7.86193754,15.4135087 7.8079666,15.3595378 L6.9260913,14.4776625 C6.81345629,14.3650274 6.81345629,14.18241 6.9260913,14.069775 L7.8079666,13.1878997 C7.86193754,13.1339287 7.9319765,13.1058189 8.00268496,13.1035701 Z" opacity="0.35"></path>
      <path d="M8.00268654,5.80737896 L8.00268654,7.5624308 C7.9504405,7.5602146 7.89884469,7.53916072 7.85895313,7.49926915 L7.19754666,6.83786268 C7.11307039,6.75338642 7.11307039,6.61642334 7.19754666,6.53194708 L7.85895313,5.87054061 C7.89884469,5.83064904 7.9504405,5.80959515 8.00268654,5.80737896 Z" opacity="0.25"></path>
      <path d="M7.98384861,-1.57956048 L7.98384861,-0.228257449 C7.94394737,-0.230179128 7.90460548,-0.246376137 7.87413315,-0.276848475 L7.36485016,-0.786131457 C7.29980344,-0.851178179 7.29980344,-0.956639752 7.36485016,-1.02168647 L7.87413315,-1.53096946 C7.90460548,-1.56144179 7.94394737,-1.5776388 7.98384861,-1.57956048 Z"></path>
      <path d="M4.48627703,53.4333756 L6.58073085,55.5278294 C6.84823902,55.7953376 6.84823902,56.229054 6.58073085,56.4965622 L4.48627703,58.591016 C4.21876887,58.8585241 3.78505244,58.8585241 3.51754428,58.591016 L1.42309045,56.4965622 C1.15558229,56.229054 1.15558229,55.7953376 1.42309045,55.5278294 L3.51754428,53.4333756 C3.78505244,53.1658674 4.21876887,53.1658674 4.48627703,53.4333756 Z"></path>
      <path d="M4.4352911,46.1160165 L6.30927609,47.9900015 C6.5486255,48.2293509 6.5486255,48.617413 6.30927609,48.8567624 L4.4352911,50.7307474 C4.19594169,50.9700968 3.80787962,50.9700968 3.56853021,50.7307474 L1.69454521,48.8567624 C1.4551958,48.617413 1.4551958,48.2293509 1.69454521,47.9900015 L3.56853021,46.1160165 C3.80787962,45.8766671 4.19594169,45.8766671 4.4352911,46.1160165 Z" opacity="0.9"></path>
      <path d="M4.38430516,38.7986574 L6.03782134,40.4521736 C6.24901199,40.6633642 6.24901199,41.0057719 6.03782134,41.2169626 L4.38430516,42.8704788 C4.17311451,43.0816694 3.8307068,43.0816694 3.61951615,42.8704788 L1.96599997,41.2169626 C1.75480932,41.0057719 1.75480932,40.6633642 1.96599997,40.4521736 L3.61951615,38.7986574 C3.8307068,38.5874667 4.17311451,38.5874667 4.38430516,38.7986574 Z" opacity="0.8"></path>
      <path d="M4.33331923,31.4812983 L5.76636658,32.9143457 C5.94939848,33.0973776 5.94939848,33.3941309 5.76636658,33.5771628 L4.33331923,35.0102102 C4.15028733,35.1932421 3.85353398,35.1932421 3.67050208,35.0102102 L2.23745473,33.5771628 C2.05442283,33.3941309 2.05442283,33.0973776 2.23745473,32.9143457 L3.67050208,31.4812983 C3.85353398,31.2982664 4.15028733,31.2982664 4.33331923,31.4812983 Z" opacity="0.6"></path>
      <path d="M4.28233329,24.1639392 L5.49491182,25.3765178 C5.64978497,25.5313909 5.64978497,25.7824899 5.49491182,25.937363 L4.28233329,27.1499416 C4.12746015,27.3048147 3.87636116,27.3048147 3.72148801,27.1499416 L2.50890949,25.937363 C2.35403634,25.7824899 2.35403634,25.5313909 2.50890949,25.3765178 L3.72148801,24.1639392 C3.87636116,24.0090661 4.12746015,24.0090661 4.28233329,24.1639392 Z" opacity="0.5"></path>
      <path d="M4.23134736,16.8465801 L5.22345706,17.8386898 C5.35017146,17.9654042 5.35017146,18.1708489 5.22345706,18.2975633 L4.23134736,19.289673 C4.10463297,19.4163874 3.89918834,19.4163874 3.77247395,19.289673 L2.78036424,18.2975633 C2.65364985,18.1708489 2.65364985,17.9654042 2.78036424,17.8386898 L3.77247395,16.8465801 C3.89918834,16.7198657 4.10463297,16.7198657 4.23134736,16.8465801 Z" opacity="0.4"></path>
      <path d="M4.18036142,9.52922105 L4.95200231,10.3008619 C5.05055795,10.3994176 5.05055795,10.5592078 4.95200231,10.6577635 L4.18036142,11.4294044 C4.08180579,11.52796 3.92201552,11.52796 3.82345988,11.4294044 L3.051819,10.6577635 C2.95326336,10.5592078 2.95326336,10.3994176 3.051819,10.3008619 L3.82345988,9.52922105 C3.92201552,9.43066541 4.08180579,9.43066541 4.18036142,9.52922105 Z" opacity="0.3"></path>
      <path d="M4.12937549,2.21186197 L4.68054755,2.76303403 C4.75094443,2.83343091 4.75094443,2.94756681 4.68054755,3.0179637 L4.12937549,3.56913576 C4.0589786,3.63953264 3.9448427,3.63953264 3.87444582,3.56913576 L3.32327376,3.0179637 C3.25287687,2.94756681 3.25287687,2.83343091 3.32327376,2.76303403 L3.87444582,2.21186197 C3.9448427,2.14146508 4.0589786,2.14146508 4.12937549,2.21186197 Z" opacity="0.15"></path>
      <path d="M0.463445831,49.774696 L2.44766524,51.7589154 C2.70109403,52.0123442 2.70109403,52.4232335 2.44766524,52.6766623 L0.463445831,54.6608817 C0.336731438,54.7875961 0.170651929,54.8509533 0.00457242067,54.8509533 L0.00457242067,49.5846244 C0.170651929,49.5846244 0.336731438,49.6479816 0.463445831,49.774696 Z" opacity="0.95"></path>
      <path d="M0.412459896,42.4573369 L2.17621048,44.2210875 C2.40148052,44.4463576 2.40148052,44.8115924 2.17621048,45.0368625 L0.412459896,46.8006131 C0.29982488,46.9132481 0.15219865,46.9695656 0.00457242067,46.9695656 L0.00457242067,42.2883844 C0.15219865,42.2883844 0.29982488,42.3447019 0.412459896,42.4573369 Z" opacity="0.85"></path>
      <path d="M0.361473962,35.1399779 L1.90475573,36.6832596 C2.101867,36.8803709 2.101867,37.1999514 1.90475573,37.3970627 L0.361473962,38.9403445 C0.262918323,39.0389001 0.133745372,39.0881779 0.00457242067,39.0881779 L0.00457242067,34.9921444 C0.133745372,34.9921444 0.262918323,35.0414222 0.361473962,35.1399779 Z" opacity="0.75"></path>
      <path d="M0.310488027,27.8226188 L1.63330097,29.1454317 C1.80225349,29.3143842 1.80225349,29.5883104 1.63330097,29.7572629 L0.310488027,31.0800759 C0.226011765,31.1645521 0.115292093,31.2067903 0.00457242067,31.2067903 L0.00457242067,27.6959044 C0.115292093,27.6959044 0.226011765,27.7381425 0.310488027,27.8226188 Z" opacity="0.55"></path>
      <path d="M0.259502093,20.5052597 L1.36184621,21.6076038 C1.50263998,21.7483976 1.50263998,21.9766694 1.36184621,22.1174631 L0.259502093,23.2198073 C0.189105208,23.2902041 0.0968388142,23.3254026 0.00457242067,23.3254026 L0.00457242067,20.3996644 C0.0968388142,20.3996644 0.189105208,20.4348628 0.259502093,20.5052597 Z" opacity="0.45"></path>
      <path d="M0.208516158,13.1879006 L1.09039145,14.0697759 C1.20302647,14.1824109 1.20302647,14.3650284 1.09039145,14.4776634 L0.208516158,15.3595387 C0.15219865,15.4158562 0.0783855355,15.4440149 0.00457242067,15.4440149 L0.00457242067,13.1034243 C0.0783855355,13.1034243 0.15219865,13.1315831 0.208516158,13.1879006 Z" opacity="0.35"></path>
      <path d="M0.157530224,5.87054151 L0.818936694,6.53194798 C0.903412956,6.61642424 0.903412956,6.75338733 0.818936694,6.83786359 L0.157530224,7.49927006 C0.115292093,7.54150819 0.0599322568,7.56262725 0.00457242067,7.56262725 L0.00457242067,5.80718431 C0.0599322568,5.80718431 0.115292093,5.82830338 0.157530224,5.87054151 Z" opacity="0.25"></path>
      <path d="M0.136995461,-1.52592994 L0.646278443,-1.01664696 C0.711325165,-0.951600237 0.711325165,-0.846138664 0.646278443,-0.781091942 L0.136995461,-0.27180896 C0.100858393,-0.235671893 0.0522476061,-0.219610974 0.00502278758,-0.223626203 L0.00502278758,-1.5741127 C0.0522476061,-1.57812793 0.100858393,-1.56206701 0.136995461,-1.52592994 Z"></path>
    </pattern>
  </defs>
  <rect x="0" y="0" width="100%" height="100%" fill="url(#divider-dots)"></rect>
</svg>
