<svg xmlns="http://www.w3.org/2000/svg" viewBox="0 0 1440 888">
  <g fill="none" fill-rule="evenodd">
    <g opacity=".346" fill="#818B90">
      <path
        d="M1031.516 290.852c-13.311-113.619-727.554-332.915-860.15-225.298-132.597 107.618-5.122 309.588 272.752 361.308 277.873 51.719 600.71-22.39 587.398-136.01z"
        opacity=".537" />
      <path
        d="M56.346 554.889c18.427-187.093 995.729-578.356 1190.71-370.99 194.981 207.365 173.384 570.842-236.073 647.875C601.527 908.808 37.918 741.982 56.346 554.89z"
        opacity=".487" />
    </g>
    <g transform="translate(927.349 155.73)">
      <circle fill="#F2F2F2" cx="53" cy="53" r="53" />
      <circle fill-opacity=".1" fill="#000" cx="53" cy="11" r="3" />
      <circle fill-opacity=".1" fill="#000" cx="11" cy="53" r="3" />
      <circle fill-opacity=".1" fill="#000" cx="95" cy="53" r="3" />
      <circle fill-opacity=".1" fill="#000" cx="53" cy="95" r="3" />
      <path fill="#AFB9C5" d="M53 17l2 35h-4zM70.698 70.698L52.314 55.142l2.828-2.828z" />
      <circle fill="#C5CFD6" cx="53" cy="53" r="4" />
    </g>
    <g transform="translate(264.283 38)">
      <ellipse fill="#F2F2F2" cx="49.5" cy="221.762" rx="42.5" ry="22.5" />
      <path d="M99 237.262c0-27.615-22.162-50-49.5-50S0 209.647 0 237.262" fill="#DDE3E9" />
      <path fill="#DDE3E9" d="M47 0h5v194.588h-5z" />
    </g>
    <g opacity=".7" transform="translate(388.665 48)">
      <ellipse fill="#F2F2F2" cx="37" cy="167.03" rx="31.768" ry="18.158" />
      <path d="M74 179.54c0-22.286-16.565-40.352-37-40.352S0 157.254 0 179.54" fill="#DDE3E9" />
      <path fill="#DDE3E9" d="M35 0h5v162.188h-5z" />
    </g>
    <path d="M993.897 323.243l38-25.832a8 8 0 018.995 0l93.356 63.461a16 16 0 017.005 13.233V764h0" stroke="#CBCBCB"
      stroke-width="8" />
    <path d="M1114.253 763h53a3 3 0 013 3v1a3 3 0 01-3 3h-53a3 3 0 01-3-3v-1a3 3 0 013-3z" fill="#AFB9C5" />
    <path
      d="M1036.297 293.287c12.888 12.888 12.888 33.782 0 46.67l-19.799 19.798-46.669-46.669 19.8-19.799c12.887-12.887 33.781-12.887 46.668 0z"
      fill="#C5CFD6" />
    <path
      d="M987.24 339.988l1.147 1.159.773.768.771.756 1.153 1.114.766.727.763.716.38.353 1.135 1.04.751.677 1.118.99.738.643.732.629.726.614.719.6 1.064.87.7.56.691.546.682.529.673.512.663.496.652.478.642.461.63.444.62.425.606.407.594.388.58.37.568.35.278.167.546.32.531.3.516.281.5.26.245.121.476.228c.078.036.155.072.232.106l.45.195c2.064.862 3.556 1.008 4.267.297.66-.66.58-1.993-.124-3.832l-.173-.434c-.03-.073-.063-.148-.095-.223l-.207-.46-.227-.475-.25-.493-.27-.508-.29-.524c-.05-.088-.1-.178-.152-.267l-.32-.546-.34-.56-.36-.575-.38-.587-.397-.6-.416-.613-.434-.625-.453-.636-.47-.647-.486-.658-.504-.667-.521-.678-.537-.687-.553-.695-.57-.704-.583-.711-.6-.72-.926-1.09-.636-.736-.98-1.113-.67-.75-.684-.753-1.05-1.137-1.077-1.146-1.105-1.151-.751-.77-.762-.773-.386-.386c-.257-.258-.515-.514-.772-.768l-.772-.757-.77-.745-.766-.734-.765-.721-.761-.71-.758-.696-.753-.684-1.121-1-.741-.65-1.101-.948-.726-.614-1.075-.894-.708-.576-.7-.561-.69-.545-.683-.53-1.006-.762-.657-.487-.647-.47-.637-.452-.313-.22-.62-.425-.606-.406-.593-.389-.581-.369a49 49 0 00-.286-.177l-.56-.34c-.092-.056-.184-.11-.275-.163l-.538-.31-.264-.148-.516-.28-.5-.26-.485-.238c-2.54-1.215-4.372-1.522-5.184-.71-.711.71-.565 2.203.296 4.266l.196.451.217.468.117.24.249.492.27.509.29.523.152.268.32.546.341.56.36.574.379.587c.064.1.13.199.196.299l.407.607.425.618.672.95.47.647.487.658.504.668.52.677.537.687.836 1.046.577.708.591.715.607.723.622.729.636.735.65.741.663.747 1.02 1.128.697.758.71.76.72.765.734.767.371.385.751.77z"
      fill="#F2F2F2" />
    <path
      d="M312.02 532.173c2.865-.35 5.922-.226 8.586.904 5.665 2.405 7.275 9.097 7.197 14.537-.084 5.854-1.327 12.249 3.124 16.966 2.046 2.168 4.591 3.828 6.6 6.037 2.147 2.36 3.832 5.06 5.079 7.96 2.29 5.326 3.414 11.59 1.32 17.177-1.844 4.92-6.483 9.36-5.48 14.954 1.045 5.835 6.928 10.296 10.607 14.643 4.162 4.918 7.995 11.205 8.625 17.655.603 6.182-2.087 12.434-6.217 17.107-8.251 9.338-20.654 13.915-33.16 13.887-5.309-.012-11.32-.252-15.902-3.105-1.416-.882-2.164-1.872-3.005-3.247-.755-1.234-1.752-2.036-2.906-2.909-2.536-1.917-4.367-4.5-5.536-7.392-4.538-11.233-.91-25.13 5.441-35.104 1.506-2.363 2.738-4.638 2.007-7.454-.763-2.94-2.639-5.593-4.298-8.12-1.639-2.499-3.51-4.882-4.791-7.582-1.342-2.83-1.72-5.793-1.483-8.89.446-5.816 2.957-11.184 6.512-15.861 3.424-4.506 7.444-8.818 7.453-14.721.01-6.258-4.173-11.824-2.391-18.186.738-2.634 2.22-5.337 4.609-6.916 2.29-1.515 5.315-2.01 8.01-2.34z"
      fill="#DDE3E9" />
    <path
      d="M310.148 542.176c.054-.84 1.05-1.344 1.836-1.125 1.033.29 1.013 1.254.985 2.114-.083 2.643.3 5.212.935 7.777 1.32 5.332 3.76 10.244 5.694 15.366 1.932 5.117 2.839 10.401 1.706 15.816-1.069 5.106-2.747 10.08-3.84 15.191-.964 4.506-1.99 9.258-.522 13.752 1.412 4.326 4.534 7.849 6.783 11.758 4.654 8.093 6.718 17.071 6.995 26.31.128 4.29.012 8.62-.983 12.828-.573 2.423-1.343 5.697-3.419 7.37-.957.772-2.595 1.038-3.4-.104-.757-1.071-.093-2.73.147-3.872 1.04-4.944 1.25-9.996 1-15.015-.24-4.862-.815-9.716-2.346-14.36-1.42-4.31-3.578-8.18-6.117-11.95-2.588-3.841-5.278-7.69-6.347-12.243-1.086-4.623-.204-9.327.976-13.862 1.248-4.796 2.883-9.455 4.573-14.122 1.647-4.547 2.23-8.85 1.321-13.609-1.796-9.402-6.603-18.228-5.977-28.02z"
      fill="#C5CFD6" />
    <path
      d="M387.654 543.582c3.545 1.077 7.066 2.813 9.593 5.536 5.373 5.791 3.724 14.543.758 20.935-3.192 6.88-8.03 13.796-5.303 21.69 1.253 3.63 3.361 6.916 4.55 10.573 1.271 3.908 1.82 7.978 1.75 12.056-.13 7.49-2.122 15.483-7.532 21.001-4.763 4.859-12.55 7.697-14.331 14.833-1.858 7.445 2.684 15.782 4.7 22.835 2.284 7.983 3.456 17.412.785 25.368-2.56 7.625-9.02 13.619-16.334 16.997-14.613 6.75-31.58 5.711-46.232-.828-6.221-2.777-13.145-6.187-17.011-11.945-1.195-1.78-1.548-3.339-1.809-5.403-.233-1.852-.979-3.32-1.871-4.952-1.96-3.586-2.743-7.594-2.585-11.622.615-15.645 12.214-30.192 24.936-38.684 3.015-2.012 5.662-4.06 6.294-7.772.659-3.875-.14-7.987-.749-11.839-.602-3.807-1.537-7.598-1.612-11.459-.078-4.044 1.045-7.745 2.96-11.283 3.596-6.647 9.379-11.69 16.02-15.372 6.398-3.547 13.393-6.555 16.524-13.532 3.319-7.395 1.355-16.154 6.807-22.75 2.258-2.732 5.425-5.158 9.062-5.783 3.487-.6 7.297.388 10.63 1.4z"
      fill="#DDE3E9" />
    <path
      d="M380.413 555.81c.503-.966 1.933-1.04 2.736-.37 1.056.884.528 2.016.045 3.02-1.482 3.087-2.38 6.33-2.98 9.7-1.248 7.006-.967 14.102-1.389 21.181-.421 7.073-2.128 13.806-6.29 19.624-3.922 5.487-8.49 10.497-12.445 15.978-3.487 4.83-7.175 9.92-7.812 16.011-.615 5.863 1.191 11.672 1.772 17.48 1.204 12.023-1.084 23.737-5.6 34.823-2.097 5.148-4.5 10.215-7.867 14.676-1.938 2.57-4.554 6.044-7.857 6.936-1.524.412-3.578-.13-3.922-1.905-.324-1.666 1.321-3.282 2.2-4.509 3.805-5.309 6.696-11.182 9.033-17.257 2.265-5.884 4.135-11.933 4.778-18.235.596-5.847.1-11.562-.895-17.357-1.014-5.905-2.143-11.875-1.01-17.825 1.152-6.045 4.647-11.153 8.402-15.905 3.972-5.026 8.323-9.686 12.743-14.327 4.307-4.522 7.243-9.31 8.673-15.423 2.824-12.077 1.825-25.048 7.685-36.315z"
      fill="#C5CFD6" />
    <path
      d="M278.068 588c5.894 0 11.076 3.124 14.647 7.558 4.18 5.19 5.024 11.528 6.722 17.714.844 3.078 2.297 6.134 4.843 8.226 2.315 1.902 5.254 2.282 8.026 3.212 5.538 1.857 10.01 6.33 11.777 11.79 2.155 6.658-.127 13.373.266 20.122.36 6.197 6.47 10.063 11.387 13.034 4.848 2.93 9.215 5.672 10.675 11.379 1.548 6.053 2.068 12.809-.077 18.788-3.57 9.956-14.02 14.34-24.116 15.02-9.163.616-20.684-.352-27.565-7.003-4.118-3.98-5.609-9.547-5.424-15.085.115-3.444.797-6.856 1.68-10.184.624-2.358 1.469-4.707 1.71-7.144.639-6.485-5.354-7.73-10.456-9.51-6.483-2.263-11.021-6.537-14.177-12.492-2.939-5.544-4.172-11.767-2.41-17.87.9-3.118 2.532-5.945 4.745-8.35.975-1.059 2.348-1.942 3.227-3.054.821-1.039.642-2.385.36-3.601-1.309-5.62-5.384-10.272-6.841-15.882-1.316-5.063-.538-11.364 4.09-14.63 2-1.411 4.467-2.022 6.911-2.038z"
      fill="#C5CFD6" />
    <path
      d="M286.1 602.641c6.247 6.655 7.945 15.684 8.444 24.435.279 4.907-.012 10.083 1.43 14.843 1.234 4.074 4.125 7.188 7.106 10.132 6.001 5.924 12.693 11.948 14.448 20.523 1.03 5.032.335 10.23 1.758 15.206 1.294 4.524 3.572 8.968 6.343 12.788 2.23 3.077 5.137 5.432 7.576 8.3.744.875 1.81 2.163 1.503 3.399-.36 1.447-2.203 1.905-3.51 1.678-3.05-.53-5.617-3.442-7.61-5.559-2.916-3.095-5.394-6.424-7.407-10.159-2.236-4.147-4.036-8.548-4.805-13.201-.798-4.827-.4-9.858-2.223-14.49-3.067-7.796-10.505-12.396-15.883-18.472-6.7-7.57-5.7-16.992-5.015-26.305.377-5.118.752-10.897-1.834-15.57-.987-1.783-3.188-3.446-3.612-5.474-.389-1.857 1.733-3.734 3.29-2.074z"
      fill="#AFB9C5" />
    <path d="M292.762 712c0 38.058 6.211 58 39 58 32.79 0 39-19.942 39-58h-78z" fill="#89C5CC" />
    <g fill="#F2F2F2">
      <path d="M550.328 770h-21v-82h-83v82h-21V666h125z" />
    </g>
    <g>
      <path
        d="M988.364 488.208c8.833 20.99 23.848 35.573 31.801 57.397 4.716 12.942 6.682 27.015 6.8 41.427.066 7.828-.07 15.662-.107 23.49-.036 7.634-.243 15.22-.891 22.805-.652 7.625-1.38 15.16-1.702 22.832-.25 5.978-.365 12.932-2.391 18.385-1.612 4.337-5.707 4.972-6.794-.288-.604-2.923-.528-6.188-.461-9.193.085-3.855.31-7.704.424-11.559.46-15.468-.137-30.938.175-46.412.304-15.119 2.248-30.22.097-45.239-1.775-12.401-6.286-23.05-11.47-33.26-4.988-9.822-10.416-19.406-13.787-30.579-.968-3.208-1.716-6.533-2.075-9.984.157-.073.284-.014.381.178z"
        fill="#C1DEE2" />
      <path
        d="M985.957 529.617c1.749 1.263 2.726 3.11 3.908 4.934 1.47 2.266 3.199 4.312 4.669 6.58 3.064 4.729 5.757 9.748 8.55 14.668 5.305 9.338 9.332 19.292 11.326 30.096 2.068 11.197 2.625 22.753 3.492 34.117.92 12.044 1.846 24.176 1.968 36.267.055 5.417.348 11.167-.303 16.546-.405 3.348-1.916 6.202-5.322 6.175-7.237-.058-10.634-8.073-12.054-14.646-2.09-9.68-2.506-19.961-2.175-29.86.4-11.936 2.471-23.692 3.368-35.582.95-12.587.413-24.952-3.915-36.803-2.186-5.99-4.723-11.835-7.002-17.784-.97-2.533-1.765-5.135-3.075-7.494-1.458-2.623-3.267-5.005-4.409-7.831l.974.617z"
        fill="#89C5CC" />
      <path
        d="M1069.317 504.518l.666-.518c-.639 2.693-1.793 4.88-2.676 7.341-.793 2.213-1.195 4.717-1.73 7.136-1.254 5.68-2.703 11.234-3.888 16.963-2.346 11.337-1.902 23.55-.364 36.128 1.453 11.882 3.75 23.745 4.845 35.624.908 9.851 1.298 20.01.432 29.409-.588 6.383-2.516 14.005-7.77 13.36-2.474-.302-3.765-3.28-4.285-6.64-.835-5.4-1.01-11.075-1.335-16.443-.727-11.982-.871-23.927-1.015-35.786-.135-11.188-.51-22.598.238-33.505.721-10.524 2.977-20.007 6.201-28.757 1.699-4.61 3.317-9.328 5.225-13.722.915-2.107 2.033-3.97 2.949-6.075.736-1.694 1.321-3.432 2.507-4.515zM988.192 564.302c.957-1.607 3.063 3.691 3.384 4.358a202.14 202.14 0 00-.41-.993c1.9 3.158 3.638 6.446 4.718 10.067 1.07 3.585 1.987 7.243 2.99 10.853 1.883 6.774 4.31 13.356 6.016 20.19 1.662 6.661 2.08 13.209 1.678 20.098-.418 7.16-.673 14.43-.186 21.587.233 3.418 1.344 6.602 2.105 9.892.762 3.294 1.362 6.632 2.263 9.885.207-.424.234.993.233 1.1a6.83 6.83 0 01-.38 2.265c-.672 1.982-1.93 3.665-3.842 4.212-3.456.987-6.666-2.157-7.78-5.477-1.6-4.764-2.48-10.028-3.242-15.035-.7-4.591-.864-9.21-.657-13.864.409-9.18 2.07-18.238 2.52-27.414.488-9.99-1.49-19.377-3.148-29.101-.798-4.686-1.561-9.327-3.115-13.791-.629-1.808-1.449-3.403-2.308-5.073-.49-.95-1.479-2.643-.84-3.76z"
        fill="#C1DEE2" />
      <path
        d="M1016.235 548.697c-.396 11.445-1.08 22.803-2.606 34.127-1.557 11.556-3.346 23.073-4.844 34.64-1.459 11.258-2.987 22.704-2.784 34.12.15 8.41-1.244 22.635 8.095 26.785 9.46 4.203 11.488-13.746 12.11-19.67 1.19-11.366.804-22.852.226-34.28-.593-11.73-1.582-23.4-2.81-35.085-1.362-12.981-2.431-26.02-3.29-39.038-.424-6.439-.529-12.867-.411-19.308.11-6.077-.12-12.218-2.281-17.988l-.34.246"
        fill="#69A1AC" />
      <path
        d="M1065.066 584.955c-1.701 2.478-3.416 4.932-5.022 7.557-2.875 4.697-5.474 9.92-6.256 16.635-1.636 14.053-.323 29.232-.007 43.716.065 2.96-.31 5.83.857 8.647 1.058 2.554 3.036 4.5 4.92 4.49 4.036-.023 3.42-9.905 3.427-14.254.012-7.623-.843-15.324-.77-22.94.074-7.546.533-15.112 1.627-22.278 1.108-7.253 2.73-14.219 4.87-20.718.297-.902 2.429-7.873.415-6.671"
        fill="#89C5CC" />
      <path
        d="M1047.245 510c-2.653 0-2.636 13.226-2.716 14.925-.289 6.13-.22 12.263-.403 18.394-.4 13.382-.89 26.88-2.9 40.107-1.082 7.12-2.336 14.21-3.686 21.276-1.353 7.087-3.17 14.165-4.06 21.342-.855 6.899-.372 13.933-.255 20.866.117 6.975.328 13.964 1.242 20.878.225 1.706.49 3.407.773 5.103.235 1.414.098 3.167.497 4.51.639 2.151 3.379 2.855 5.224 2.52 4.993-.912 8.182-7.181 9.887-11.761 2.178-5.849 3.334-12.193 4.474-18.356 1.292-6.983 2.05-14.072 2.405-21.18.722-14.449-.205-28.912-1.24-43.314-.576-8.01-1.24-15.983-2.258-23.943-1.013-7.926-2.313-15.817-3.16-23.766-.615-5.776-1.221-11.56-1.62-17.36-.095-1.382-.175-10.241-2.204-10.241"
        fill="#69A1AC" />
      <path
        d="M1043.924 606.139c-.433-13.886-6.014-74.88-7.284-91.672-.318-4.203-3.375-21.702-3.772-26.467-1.075 1.347-.983 22.31-.972 27.126.013 4.765-.578 9.45-.882 14.19-.31 4.835-7.459 67.285-8.386 71.931-1.846 9.244-3.081 18.73-4.034 28.18-.928 9.212-2.37 18.931-1.129 28.191.286 2.132.737 4.23 1.473 6.188.794 2.116 1.339 4.073 1.977 6.287 1.026 3.566 2.883 6.696 5.736 8.169 5.85 3.019 8.99-3.815 10.583-9.765 2.543-9.502 4.175-19.16 4.94-29.138.847-11.04 2.096-22.104 1.75-33.22"
        fill="#89C5CC" />
    </g>
    <g>
      <path d="M983.983 647h87a2 2 0 012 2v87a2 2 0 01-2 2h-87a2 2 0 01-2-2v-87a2 2 0 012-2z" fill="#FFF" />
      <path
        d="M973.983 657h6a2 2 0 012 2v109a2 2 0 01-2 2h-6a2 2 0 01-2-2V659a2 2 0 012-2zM1023.983 657h6a2 2 0 012 2v109a2 2 0 01-2 2h-6a2 2 0 01-2-2V659a2 2 0 012-2zM1074.983 657h6a2 2 0 012 2v109a2 2 0 01-2 2h-6a2 2 0 01-2-2V659a2 2 0 012-2z"
        fill="#C5CFD6" />
    </g>
    <g>
      <path
        d="M578.5 397c10.782 0 19.71 7.937 21.262 18.287l.207.78.21.817.212.851.32 1.337.212.928.213.956.319 1.48.21 1.017.21 1.037.205 1.056.305 1.615.296 1.646.286 1.672.275 1.69.262 1.704.167 1.139.237 1.71.149 1.136.14 1.133.131 1.127.123 1.12.113 1.108.103 1.098.092 1.083.08 1.068.07 1.05.057 1.032.045 1.01.032.986.018.961c.06 5.056-.477 8.955-1.944 10.388h-29l-.008-.153C563.36 459.679 555 450.566 555 439.5v-21c0-11.874 9.626-21.5 21.5-21.5h2z"
        fill="#191847" />
      <path
        d="M596.143 410.134c5.795 10.801 5.107 38.199-2.383 40.13-2.986.77-9.349-1.116-15.824-5.02L582 474h-24l8.262-38.51c-4.608-5.41-7.726-12.037-7.205-19.465 1.501-21.4 31.292-16.692 37.086-5.891z"
        fill="#B28B67" />
      <path
        d="M577.001 398c7.399 0 11.562 2.2 14.416 4.98l.365.367.351.372.338.376.326.381.315.385.305.387.296.389.429.585.14.195.273.389.794 1.157c-1.293 4.436-4.655 6.773-8.765 8.828l-.711.35-.725.346-1.483.69-1.517.7-1.154.543-.774.373-.388.191-.777.391a43.643 43.643 0 00-3.09 1.735 5.5 5.5 0 10-3.215 9.765l.084.94.114 1.423.067.952.088 1.434.05.956.042.955.035.954c.006.158.01.317.015.475l.024.948.015.941.008.936v.927l-.008.917-.008.455-.02.901-.03.888-.039.875-.047.859-.056.842-.065.824-.075.805-.084.784-.093.763c-.033.25-.068.496-.104.739l-.113.714c-.512 3.041-1.305 5.354-2.433 6.455h-29c-.02-.353-.038-.7-.053-1.04l-.036-1.004a54.71 54.71 0 01.04-4.511l.051-.807.064-.778c.198-2.161.551-3.977 1.018-5.54l.17-.541.179-.521.187-.502c.096-.247.195-.486.296-.72l.208-.457.214-.442c.073-.145.147-.287.222-.427l.228-.412.117-.202.237-.393.243-.38.248-.37.253-.36.257-.351.26-.343.266-.335.268-.328.27-.323.411-.476.555-.624 1.34-1.484.446-.506.295-.343.44-.527.288-.36.286-.369.282-.379.278-.39.273-.402.268-.415.262-.43c.087-.145.172-.293.256-.444l.25-.462c.123-.235.243-.477.36-.726l.231-.508c1.36-3.106 2.272-7.315 2.272-13.702l1.459-1.437c.454-.444.9-.871 1.345-1.268l-.032-.777C562.91 403.14 569.28 398 577 398z"
        fill="#191847" />
      <g>
        <path
          d="M519.408 655.088c23.99 6.71 44.686 10.065 62.092 10.065 17.405 0 33.572-5.167 48.5-15.5-23.476-6.887-42.81-10.33-58-10.33-15.19 0-32.722 5.255-52.592 15.765z"
          fill="#1F28CF" />
        <path
          d="M602.267 674.824a5.657 5.657 0 01-.582-1.135C598.48 665.209 547.117 573.726 542 557h57.826c3.89 12.717 21.401 92.52 23.865 108.442 7.776 25.115 23.784 106.453 25.828 112.088 2.15 5.928-9.947 12.103-13.17 4.816-5.13-11.596-17.35-43.68-22.792-63.272-5.101-18.366-9.255-34.89-11.29-44.25z"
          fill="#B28B67" />
        <path
          d="M602.267 674.824a5.657 5.657 0 01-.582-1.135C598.48 665.209 547.117 573.726 542 557h57.826c3.89 12.717 21.401 92.52 23.865 108.442 7.776 25.115 23.784 106.453 25.828 112.088 2.15 5.928-9.947 12.103-13.17 4.816-5.13-11.596-17.35-43.68-22.792-63.272-5.101-18.366-9.255-34.89-11.29-44.25z"
          fill-opacity=".1" fill="#000" />
        <path
          d="M554.957 685.994c-23.482 5.934-109.373 16.664-115.267 18.347-6.064 1.73-11.38-10.767-3.885-13.474 11.925-4.308 44.784-14.261 64.707-18.323 16.024-3.267 30.647-5.933 40.464-7.494-.831-27.577-4.633-93.756-2.141-108.05H590c-2.39 13.707-22.59 113.718-26.344 123.729-1.192 3.573-4.747 5.153-8.699 5.265z"
          fill="#B28B67" />
        <path
          d="M436.488 687.57l-.14-.031-.833-.149c-2.712-.46-4.732-.574-6.06-.34-.338.06-.704.136-1.097.227l-.612.15-.652.173-.695.197-.736.22-.777.246-.404.131-.84.281-.881.305-.923.329 9.794 55.545c5.026.602 7.455-.686 7.288-3.863l-.123-2.428-.098-2.2-.09-2.43-.025-.874 6.957-27.846a1 1 0 00-.617-1.178l-.139-.041-4.318-.95c-1.85-2.642-2.935-4.863-3.252-6.663-.245-1.389-.046-3.375.598-5.958l.105-.413a2 2 0 00-1.43-2.44zM632.733 781.27l-.055.132-.291.796c-.925 2.59-1.387 4.56-1.387 5.908 0 .343.01.717.033 1.12l.04.628.058.673.073.718.09.763.107.808c.019.139.038.28.059.421l.13.876.148.921.163.966h56.402c1.466-4.845.62-7.461-2.538-7.848l-2.412-.3-2.185-.286-2.409-.334-.864-.126-26.215-11.687a1 1 0 00-1.267.402l-.065.13-1.685 4.088c-2.923 1.364-5.299 2.046-7.126 2.046-1.411 0-3.332-.542-5.764-1.624l-.389-.176a2 2 0 00-2.651.985z"
          fill="#E4E4E4" />
        <path
          d="M539 557c22.547-6.45 43.88-6.45 64 0 1.89 8.623 4.51 15.842 7.386 22.75l.643 1.53c.108.255.216.51.325.763l.653 1.52.991 2.274 2.339 5.327.67 1.538.668 1.552.333.78.665 1.576c5.63 13.463 10.802 28.997 12.327 53.969-15.3 7.602-32.22 5.923-49.393 3.277l-3.438-.54-5.737-.916-2.296-.36-2.296-.35-2.294-.334c-15.67-2.225-31.196-3.105-45.546 3.65-10-23.045 4-78.541 20-98.006z"
          fill="#2B44FF" />
      </g>
      <g>
        <path
          d="M511.97 526.45l21.897.082-28.494 64.22-7.234 16.413-1.707 3.942-.124.299c-1.364 3.379-.223 7.8 1.372 11.821l.295.727.15.36.304.709.462 1.038.307.672.601 1.287.565 1.198.506 1.094.115.255c-2.366 1.059-3.824.39-5.077-.767l-.266-.255-.261-.268-.258-.277-.873-.974-.343-.373-.233-.243-.239-.238c-.04-.039-.08-.077-.122-.115l-.248-.225a8.205 8.205 0 00-.127-.108l-.26-.208c-1.458-1.11-3.336-1.617-6.39-.197-1.316.613-2.579 1.308-3.812 2.015l-2.537 1.467-.797.451-.53.292-.529.284-.53.274-.529.263-.53.25-.531.237c-3.815 1.643-7.758 2.114-12.574-.858-1.115-.688-2.338-3.28.616-5.304l1.022-.71.7-.498.713-.514.724-.529 1.101-.818 1.113-.844 1.119-.863 1.117-.877 1.108-.886 1.092-.889.716-.591 1.05-.882.682-.582.664-.576.645-.567.623-.557.6-.545.574-.532.547-.518.516-.5.485-.484.45-.463.213-.224.396-.43.357-.408c.505-.592.87-1.098 1.066-1.495l.126-.266.224-.505.264-.632.416-1.04.49-1.266.712-1.9.827-2.253 1.142-3.169 1.777-5.016 2.068-5.919 2.993-8.67 2.722-7.95 4.628-13.622 4.356-12.903 3.812-11.34 2.015-6.007zM697.9 507.14l-1.208 1.016-.99.847-.725.637-.706.634-.456.42-.444.416-.428.413-.411.408-.2.202-.383.4-.362.393-.34.385c-1.311 1.525-2.036 2.85-1.68 3.74.287.716 1.014 1.075 1.855 1.387l1.088.389c1.174.436 2.311 1.02 2.642 2.488.129.573-.317 1.01-1.338 1.31l-.28.076-.305.069-.332.063-.357.056c-.062.01-.125.018-.189.026l-.397.048-.423.041-.449.035-.475.03-.5.022-.528.017-.553.01-.58.004-.605-.002-.957-.014-.671-.018-1.055-.038-1.114-.051-1.172-.066-1.655-.109-1.309-.098-1.368-.112-1.427-.126-1.485-.14c-.168-.016-.338-.032-.508-.05L643.084 535 636 517.31l39.483-5.385c7.898-4.393 15.164-7.367 21.798-8.922l.277-.003.288.01.291.023.194.023.191.03.187.038.18.046.174.055.164.063c.053.023.104.047.153.073l.14.083.125.093c.667.557.553 1.632-1.744 3.602z"
          fill="#997659" />
        <path
          d="M571.95 457l17.144 1.142c4.223 38.201 27.222 62.33 78.717 54.162l6.841 49.195c-48.13 6.22-90.339-13.05-98.99-65.22-2.239-13.506-4.007-27.561-3.713-39.279z"
          fill="#AFB9C5" />
        <path
          d="M563.477 452l.014.016 25.977 5.95c0 18.15 2.348 33.63 5.627 47.818l.433 1.844.442 1.829.225.91.456 1.81.464 1.797.472 1.785.478 1.775.485 1.765.736 2.629.745 2.61.502 1.73 1.262 4.296 2.76 9.293.846 2.875c1.865 6.386 3.64 12.765 5.153 19.302L611 564h-70.156c-.918 10.54-1.507 21.353-1.84 32.437l-.072 2.563h-52.53c11.784-62.703 36.527-111.355 74.227-145.956l1.147-1.044h1.701z"
          fill="#C5CFD6" />
        <path
          d="M551.543 501.58l.37-1.32-.13 2.076-.12 2.05-.109 2.027-.098 2.001-.087 1.977-.076 1.952-.066 1.928-.029.954-.05 1.89c-.014.626-.027 1.248-.038 1.866l-.028 1.84-.01.912-.011 1.803c-.003.597-.003 1.19-.001 1.78l.01 1.754.008.867.026 1.718.017.849.042 1.68.025.83.058 1.644c.022.543.045 1.083.07 1.618l.08 1.593.09 1.57.101 1.543.055.763.117 1.507.128 1.482c.045.49.091.976.14 1.458l.149 1.432.16 1.408.085.695.176 1.371.188 1.346.098.664.203 1.31c.07.431.141.86.215 1.284l.225 1.26a92.04 92.04 0 001.43 6.485l.146.553h-14.258c1.914-21.992 5.26-42.799 10.699-62.42z"
          fill-opacity=".1" fill="#000" />
      </g>
    </g>
    <g>
      <path
        d="M830.339 382.15c-6.52 12.152-5.745 42.975 2.68 45.146 1.776.458 4.61.082 7.965-1.023l.726-.247a43.154 43.154 0 003.04-1.21l.789-.355a53.24 53.24 0 003.228-1.63l.82-.457c.411-.234.823-.476 1.236-.724L846.25 454h27l-9.295-43.324c5.184-6.085 8.692-13.542 8.106-21.897-1.69-24.076-35.203-18.78-41.722-6.628z"
        fill="#B28B67" />
      <path
        d="M844.976 370.323c-1.04.09-2.064.21-3.063.355l-.85.13c-.28.045-.559.092-.835.141l-.82.152c-.27.052-.538.105-.803.16l-.784.17c-.259.057-.514.115-.765.175l-.743.183c-.122.03-.244.062-.364.093l-.708.19-.684.195-.657.198c-.214.066-.424.133-.629.2l-.6.2-.288.1-.553.202c-.09.033-.177.067-.264.1l-.503.199-.468.196-.43.193c-.618.286-1.108.558-1.446.8l.005.7.01.449.014.434.022.42.028.406.035.391.044.378.052.364.061.351.035.17.076.332a7.1 7.1 0 00.239.771l.116.287c.02.047.041.093.063.139l.136.268c.57 1.048 1.468 1.806 2.868 2.326l.36.126c.743.24 1.614.422 2.635.552l.524.061.549.052.575.044.602.036.955.04.672.016.7.009.731.001.76-.005.393-.006c2.916 1.54 5.158 4.193 7.493 7.67l-.078 1.04-.085 1.015-.09.99-.098.963-.102.938-.11.912-.114.886-.122.861-.127.835-.133.81a61.87 61.87 0 01-.069.395l-.142.77c-.049.253-.098.501-.149.745l-.154.72c-.053.235-.106.467-.16.694l-.167.668-.086.324-.176.63c-.357 1.233-.751 2.312-1.182 3.237l-.218.45c-1.254 2.475-2.8 3.713-4.639 3.713-3.245 0-6.25-1.005-8.816-2.034l-.756-.309-2.099-.876-.639-.255c-1.142-.445-2.121-.75-2.904-.75-2.128 0-1.653 2.663-.243 4.638.307.428.925.853 1.67 1.292l.46.265 1.225.684.497.284c1.562.912 2.978 1.936 2.978 3.198 0 1.063-.793 1.332-1.712 1.4l-.28.014-.423.007h-.52l-.29.004c-.708.02-1.252.123-1.252.644l-.006.432-.037 1.125-.011.516v.525l.01.353.019.351c.14 1.986.83 3.833 3.538 3.833l.206-.002.446-.009.488-.019.258-.014.543-.035.577-.046.3-.028.62-.064.645-.077.668-.09.686-.105.349-.057.708-.127c5.117-.959 11.055-3.099 12.47-7.37.047-.144.094-.293.14-.448l.138-.479.134-.51.13-.543.128-.575.062-.299.122-.622.118-.654.115-.686.112-.718.054-.371.106-.766.052-.395.101-.814.098-.845.094-.877.09-.91.087-.94.124-1.472.116-1.543.074-1.069.07-1.1.097-1.71.09-1.783.056-1.228.077-1.902.07-1.973.021-.674a6.75 6.75 0 015.522 11.529 102.342 102.342 0 005.318 6.884c2.26-1.357 4.346-3.497 5.96-6.172l.315-.543c3.511-6.223 4.494-15.109-.516-23.754-2.036-6.228-6.646-9.554-12.09-11.099-4.41-1.845-8.988-2.053-12.853-.947z"
        fill="#191847" />
      <path fill="#B28B67" d="M891.214 549l-42.272 138.467-20.478 117.756h-16.056L834.046 549z" />
      <path fill-opacity=".1" fill="#000" d="M891.214 549l-42.272 138.467-20.478 117.756h-16.056L834.046 549z" />
      <path
        d="M906.336 549c-2.871 76.026.508 115.24 1.15 122.148.643 6.907 9.442 51.694 30.274 136.394l-17.109-5.887c-32.922-77.682-44.14-118.055-47.917-128.256-3.776-10.2-13.805-51.667-30.086-124.399h63.688z"
        fill="#B28B67" />
      <path
        d="M937.535 801.312c1.321 3.49 1.982 6.092 1.982 7.803 0 .176-.003.36-.008.55l-.023.593a35.1 35.1 0 01-.092 1.313l-.069.72a53.25 53.25 0 01-.04.375l-.092.784-.107.825-.06.429-.13.889-.07.46-.153.952-.169.995h-63.358c-1.646-5.454-.696-8.398 2.852-8.833l3.15-.395 2.266-.299 1.048-.143 1.929-.275.447-.066 29.563-13.205a1 1 0 011.267.402l.066.13 1.941 4.72c3.284 1.534 5.952 2.302 8.005 2.302 1.637 0 3.886-.65 6.746-1.95l.394-.18a2 2 0 012.657.968l.058.136zM831.914 801.243l.027.07c.276.726.522 1.415.74 2.065l.248.761c.663 2.105.994 3.764.994 4.976 0 .176-.002.36-.007.55l-.023.593-.039.635-.053.678-.069.72-.04.375-.092.784-.107.825-.123.868-.138.91-.074.47-.16.974-.087.503h-63.358c-1.647-5.454-.696-8.398 2.851-8.833l3.15-.395 2.266-.299 1.049-.143 1.929-.275.447-.066 29.563-13.205a1 1 0 011.267.402l.065.13 1.942 4.72c3.284 1.534 5.952 2.302 8.005 2.302 1.637 0 3.885-.65 6.745-1.95l.394-.18a2 2 0 012.658.968l.03.067z"
        fill="#E4E4E4" />
      <path fill="#69A1AC" d="M896.83 549l-17.973 70.547h-54.898L832.145 549z" />
      <path d="M906.94 549c5.914 17.761 7.037 41.277 3.37 70.547h-56.021L838.884 549h68.056z" fill="#89C5CC" />
      <g>
        <path
          d="M931.425 525.12l-23.268 3.363 12.38 26.217 7.24 15.27 6.369 13.358 3.654 7.592 2.073 4.247.835 1.68.536 1.057.325.62.182.335.05.086c2.084 3.61 1.445 8.825.255 13.619l-.203.795-.21.784-.108.388-.33 1.144-.332 1.107-.938 3.032-.268.891-.082.281c2.865.826 4.39-.21 5.62-1.75l.227-.295.111-.15.22-.31.325-.474.431-.646.342-.504.206-.294.211-.289.218-.283.111-.14.23-.272c1.478-1.694 3.514-2.816 7.457-1.617 1.06.322 2.097.69 3.119 1.079l.915.355.605.24 2.426.983.912.364.907.352.601.225.6.217.3.104.599.2.597.19.597.174c.198.056.397.11.595.16l.596.143c4.17.944 8.334.585 12.872-3.173.116-.096.23-.214.338-.35l.125-.173c.853-1.269 1.114-3.746-1.977-5.28l-.377-.187-.767-.388-.784-.404-.798-.418-1.22-.65-.827-.45-1.252-.69-.842-.473-1.266-.722-1.266-.735-1.259-.743-.831-.5-.824-.5-1.216-.75-.794-.498-.78-.496-1.137-.735-.733-.484-.711-.476-.687-.47-.662-.459-.633-.45-.604-.438a57.973 57.973 0 01-.29-.214l-.555-.42-.52-.405-.484-.39-.444-.372c-.779-.669-1.352-1.249-1.665-1.708a8.142 8.142 0 01-.266-.42l-.194-.337-.206-.382-.219-.428-.231-.473-.245-.518-.257-.564-.41-.93-.29-.678-.457-1.1-.321-.792-.506-1.27-.534-1.374-.564-1.475-.795-2.126-1.067-2.912-.91-2.534-1.211-3.423-1.29-3.707-1.09-3.17-1.73-5.094-2.165-6.46-2.32-7.015-2.478-7.572-2.635-8.127-1.977-6.146zm-140.686 15.353l-27.24 35.167c-8.633 5.2-15.55 10.575-20.75 16.124-.15.241-.298.51-.426.79l-.083.187-.073.182-.096.274-.028.091-.048.181a3.39 3.39 0 00-.02.09l-.031.176-.012.087-.013.17c-.04 1.004.66 1.7 3.106 1.077l.425-.116c.147-.043.299-.09.457-.142l.492-.169 1.229-.451.648-.235c.323-.117.647-.232.97-.345l1.283-.44.948-.312.622-.197.916-.276.596-.17.583-.158.569-.144.553-.13.27-.058.525-.105c2.152-.405 3.79-.362 4.438.464.51.65.469 1.513.312 2.46l-.08.442-.129.68-.079.46c-.206 1.307-.212 2.64.948 3.712.421.389.99.289 1.707-.3l.199-.173.206-.197.214-.222.22-.245.229-.27.236-.294.243-.319.378-.523.261-.379.269-.403.416-.65.287-.464.295-.488.455-.778.471-.832.655-1.195.51-.96.526-1.013.543-1.069.56-1.123.382-.78.587-1.214.603-1.268.62-1.324.636-1.378.434-.949 30.102-23.925-13.026-16.631z"
          fill="#B28B67" />
        <path
          d="M851.56 436.904l-9.865-.296c-10.773 43.69-34.448 85.338-71.026 124.946l36.552 33.484c34.56-53.934 53.052-107.168 44.339-158.134z"
          fill="#191847" />
        <path
          d="M910.538 551.848l-85.782 12.056c13.095-51.03 17.273-93.401 12.534-127.117l25.336-7.485c24.924 29.79 36.317 69.18 47.912 122.546z"
          fill="#DDE3E9" />
        <path
          d="M863.163 429.226l-1.689.238-3.427.614-5.755 1.06-3.746 18.714.143 1.338.144 1.391.143 1.446.214 2.27.214 2.391.213 2.513.212 2.635.283 3.702.212 2.919.28 4.08.14 2.122.35 5.54.279 4.675.277 4.892.277 5.108.275 5.324.275 5.541.41 8.716.34 7.636.272 6.351.337 8.244.202 5.108.336 8.785.333 9.122.333 9.46.397 11.798 56.231-7.903c.41 3.81.759 7.66 1.044 11.548l.164 2.338 41.811-5.876c-15.991-68.86-46.042-119.809-90.152-152.848l-1.341-.996-.017.022-.014-.018z"
          fill="#2F3676" />
        <path
          d="M895.995 577.706l15.72-2.21c-2.18-20.509-6.162-39.894-11.945-58.154l.146 1.795.136 1.772.186 2.616.112 1.716.102 1.694.093 1.67.083 1.649.073 1.626.063 1.603.054 1.58.023.782.04 1.547.03 1.525.019 1.502.01 1.479v1.457l-.009 1.434-.018 1.412-.014.697-.033 1.378-.043 1.355-.053 1.333-.062 1.31-.073 1.288-.082 1.265-.044.624-.097 1.232c-.016.203-.034.405-.051.607l-.111 1.197-.06.59-.125 1.165c-.043.384-.088.764-.135 1.14l-.145 1.12-.076.55-.16 1.085-.083.534-.174 1.051-.09.517-.189 1.018a70.71 70.71 0 01-.514 2.444l-.222.939c-.644 2.627-1.404 4.982-2.282 7.066z"
          fill-opacity=".1" fill="#000" />
        <path fill-opacity=".2" fill="#FFF" d="M894.368 542.78l-29.535-8.97 1.808 12.866z" />
      </g>
    </g>
  </g>
</svg>
