<svg xmlns="http://www.w3.org/2000/svg" viewBox="0 0 1440 888">
  <g fill="none" fill-rule="evenodd">
    <g transform="translate(927.349 155.73)">
      <circle fill="#F2F2F2" cx="53" cy="53" r="53" />
      <circle fill-opacity=".1" fill="#000" cx="53" cy="11" r="3" />
      <circle fill-opacity=".1" fill="#000" cx="11" cy="53" r="3" />
      <circle fill-opacity=".1" fill="#000" cx="95" cy="53" r="3" />
      <circle fill-opacity=".1" fill="#000" cx="53" cy="95" r="3" />
      <path fill="#AFB9C5" d="M53 17l2 35h-4zM70.699 70.698L52.314 55.142l2.828-2.828z" />
      <circle fill="#C5CFD6" cx="53" cy="53" r="4" />
    </g>
    <g opacity=".346">
      <path
        d="M1031.516 290.852c-13.311-113.619-727.554-332.915-860.15-225.298-132.597 107.618-5.122 309.588 272.752 361.308 277.873 51.719 600.71-22.39 587.398-136.01z"
        fill="#F2F2F2" />
      <path
        d="M56.346 554.889c18.427-187.093 1007.156-548.2 1190.71-370.99 183.554 177.21 137.093 549.951-247.568 635.116-384.662 85.165-961.57-77.033-943.142-264.126z"
        fill="#DDE3E9" />
    </g>
    <g transform="translate(264.283 225.262)">
      <ellipse fill="#F2F2F2" cx="49.5" cy="34.5" rx="42.5" ry="22.5" />
      <path d="M99 50C99 22.386 76.838 0 49.5 0S0 22.386 0 50" fill="#DDE3E9" />
    </g>
    <path fill="#DDE3E9" d="M311.283 38h5v194.588h-5z" />
    <g opacity=".7">
      <g transform="translate(388.665 187.188)">
        <ellipse fill="#F2F2F2" cx="37" cy="27.842" rx="31.768" ry="18.158" />
        <path d="M74 40.35C74 18.067 57.435 0 37 0S0 18.066 0 40.35" fill="#DDE3E9" />
      </g>
      <path fill="#DDE3E9" d="M423.665 48h5v162.188h-5z" />
    </g>
    <g transform="translate(933.897 282.354)">
      <path d="M60 40.889l38-25.832a8 8 0 018.995 0l93.355 63.461a16 16 0 017.005 13.232v389.896h0" stroke="#CBCBCB"
        stroke-width="8" />
      <rect fill="#AFB9C5" x="177.355" y="480.646" width="59" height="7" rx="3" />
      <g transform="rotate(45 23.188 59.395)">
        <path d="M33.03 1.384c18.226 0 33 14.775 33 33v28h-66v-28c0-18.225 14.775-33 33-33z" fill="#C5CFD6" />
        <ellipse fill="#F2F2F2" cx="33.209" cy="61.445" rx="33" ry="6.5" />
      </g>
    </g>
    <path
      d="M312.02 532.173c2.865-.35 5.922-.226 8.586.904 5.665 2.405 7.275 9.097 7.197 14.537-.084 5.854-1.327 12.249 3.124 16.966 2.046 2.168 4.591 3.828 6.6 6.037 2.147 2.36 3.832 5.06 5.079 7.96 2.29 5.326 3.414 11.59 1.32 17.177-1.844 4.92-6.483 9.36-5.48 14.954 1.045 5.835 6.928 10.296 10.607 14.643 4.162 4.918 7.995 11.205 8.625 17.655.603 6.182-2.087 12.434-6.217 17.107-8.251 9.338-20.654 13.915-33.16 13.887-5.309-.012-11.32-.252-15.902-3.105-1.416-.882-2.164-1.872-3.005-3.247-.755-1.234-1.752-2.036-2.906-2.909-2.536-1.917-4.367-4.5-5.536-7.392-4.538-11.233-.91-25.13 5.441-35.104 1.506-2.363 2.738-4.638 2.007-7.454-.763-2.94-2.639-5.593-4.298-8.12-1.639-2.499-3.51-4.882-4.791-7.582-1.342-2.83-1.72-5.793-1.483-8.89.446-5.816 2.957-11.184 6.512-15.861 3.424-4.506 7.444-8.818 7.453-14.721.01-6.258-4.173-11.824-2.391-18.186.738-2.634 2.22-5.337 4.609-6.916 2.29-1.515 5.315-2.01 8.01-2.34z"
      fill="#DDE3E9" />
    <path
      d="M310.148 542.176c.054-.84 1.05-1.344 1.836-1.125 1.033.29 1.013 1.254.985 2.114-.083 2.643.3 5.212.935 7.777 1.32 5.332 3.76 10.244 5.694 15.366 1.932 5.117 2.839 10.401 1.706 15.816-1.069 5.106-2.747 10.08-3.84 15.191-.964 4.506-1.99 9.258-.522 13.752 1.412 4.326 4.534 7.849 6.783 11.758 4.654 8.093 6.718 17.071 6.995 26.31.128 4.29.012 8.62-.983 12.828-.573 2.423-1.343 5.697-3.419 7.37-.957.772-2.595 1.038-3.4-.104-.757-1.071-.093-2.73.147-3.872 1.04-4.944 1.25-9.996 1-15.015-.24-4.862-.815-9.716-2.346-14.36-1.42-4.31-3.578-8.18-6.117-11.95-2.588-3.841-5.278-7.69-6.347-12.243-1.086-4.623-.204-9.327.976-13.862 1.248-4.796 2.883-9.455 4.573-14.122 1.647-4.547 2.23-8.85 1.321-13.609-1.796-9.402-6.603-18.228-5.977-28.02z"
      fill="#C5CFD6" />
    <path
      d="M387.654 543.582c3.545 1.077 7.066 2.813 9.593 5.536 5.373 5.791 3.724 14.543.758 20.935-3.192 6.88-8.03 13.796-5.303 21.69 1.253 3.63 3.361 6.916 4.55 10.573 1.271 3.908 1.82 7.978 1.75 12.056-.13 7.49-2.122 15.483-7.532 21.001-4.763 4.859-12.55 7.697-14.331 14.833-1.858 7.445 2.684 15.782 4.7 22.835 2.284 7.983 3.456 17.412.785 25.368-2.56 7.625-9.02 13.619-16.334 16.997-14.613 6.75-31.58 5.711-46.232-.828-6.221-2.777-13.145-6.187-17.011-11.945-1.195-1.78-1.548-3.339-1.809-5.403-.233-1.852-.979-3.32-1.871-4.952-1.96-3.586-2.743-7.594-2.585-11.622.615-15.645 12.214-30.192 24.936-38.684 3.015-2.012 5.662-4.06 6.294-7.772.659-3.875-.14-7.987-.749-11.839-.602-3.807-1.537-7.598-1.612-11.459-.078-4.044 1.045-7.745 2.96-11.283 3.596-6.647 9.379-11.69 16.02-15.372 6.398-3.547 13.393-6.555 16.524-13.532 3.319-7.395 1.355-16.154 6.807-22.75 2.258-2.732 5.425-5.158 9.062-5.783 3.487-.6 7.297.388 10.63 1.4z"
      fill="#DDE3E9" />
    <path
      d="M380.413 555.81c.503-.966 1.933-1.04 2.736-.37 1.056.884.528 2.016.045 3.02-1.482 3.087-2.38 6.33-2.98 9.7-1.248 7.006-.967 14.102-1.389 21.181-.421 7.073-2.128 13.806-6.29 19.624-3.922 5.487-8.49 10.497-12.445 15.978-3.487 4.83-7.175 9.92-7.812 16.011-.615 5.863 1.191 11.672 1.772 17.48 1.204 12.023-1.084 23.737-5.6 34.823-2.097 5.148-4.5 10.215-7.867 14.676-1.938 2.57-4.554 6.044-7.857 6.936-1.524.412-3.578-.13-3.922-1.905-.324-1.666 1.321-3.282 2.2-4.509 3.805-5.309 6.696-11.182 9.033-17.257 2.265-5.884 4.135-11.933 4.778-18.235.596-5.847.1-11.562-.895-17.357-1.014-5.905-2.143-11.875-1.01-17.825 1.152-6.045 4.647-11.153 8.402-15.905 3.972-5.026 8.323-9.686 12.743-14.327 4.307-4.522 7.243-9.31 8.673-15.423 2.824-12.077 1.825-25.048 7.685-36.315z"
      fill="#C5CFD6" />
    <g>
      <path
        d="M278.068 588c5.894 0 11.076 3.124 14.647 7.558 4.18 5.19 5.024 11.528 6.722 17.714.844 3.078 2.297 6.134 4.843 8.226 2.315 1.902 5.254 2.282 8.026 3.212 5.538 1.857 10.01 6.33 11.777 11.79 2.155 6.658-.127 13.373.266 20.122.36 6.197 6.47 10.063 11.387 13.034 4.848 2.93 9.215 5.672 10.675 11.379 1.548 6.053 2.068 12.809-.077 18.788-3.57 9.956-14.02 14.34-24.116 15.02-9.163.616-20.684-.352-27.565-7.003-4.118-3.98-5.609-9.547-5.424-15.085.115-3.444.797-6.856 1.68-10.184.624-2.358 1.469-4.707 1.71-7.144.639-6.485-5.354-7.73-10.456-9.51-6.483-2.263-11.021-6.537-14.177-12.492-2.939-5.544-4.172-11.767-2.41-17.87.9-3.118 2.532-5.945 4.745-8.35.975-1.059 2.348-1.942 3.227-3.054.821-1.039.642-2.385.36-3.601-1.309-5.62-5.384-10.272-6.841-15.882-1.316-5.063-.538-11.364 4.09-14.63 2-1.411 4.467-2.022 6.911-2.038z"
        fill="#C5CFD6" />
      <path
        d="M286.1 602.641c6.247 6.655 7.945 15.684 8.444 24.435.279 4.907-.012 10.083 1.43 14.843 1.234 4.074 4.125 7.188 7.106 10.132 6.001 5.924 12.693 11.948 14.448 20.523 1.03 5.032.335 10.23 1.758 15.206 1.294 4.524 3.572 8.968 6.343 12.788 2.23 3.077 5.137 5.432 7.576 8.3.744.875 1.81 2.163 1.503 3.399-.36 1.447-2.203 1.905-3.51 1.678-3.05-.53-5.617-3.442-7.61-5.559-2.916-3.095-5.394-6.424-7.407-10.159-2.236-4.147-4.036-8.548-4.805-13.201-.798-4.827-.4-9.858-2.223-14.49-3.067-7.796-10.505-12.396-15.883-18.472-6.7-7.57-5.7-16.992-5.015-26.305.377-5.118.752-10.897-1.834-15.57-.987-1.783-3.188-3.446-3.612-5.474-.389-1.857 1.733-3.734 3.29-2.074z"
        fill="#AFB9C5" />
    </g>
    <path d="M292.762 712c0 38.058 6.211 58 39 58 32.79 0 39-19.942 39-58h-78z" fill="#89C5CC" />
    <g fill="#F2F2F2">
      <path d="M550.328 770h-21v-82h-83v82h-21V666h125v104z" />
    </g>
    <g>
      <path
        d="M988.364 488.208c8.833 20.99 23.848 35.573 31.801 57.397 4.716 12.942 6.682 27.015 6.8 41.427.066 7.828-.07 15.662-.107 23.49-.036 7.634-.243 15.22-.891 22.805-.652 7.625-1.38 15.16-1.702 22.832-.25 5.978-.365 12.932-2.391 18.385-1.612 4.337-5.707 4.972-6.794-.288-.604-2.923-.528-6.188-.461-9.193.085-3.855.31-7.704.424-11.559.46-15.468-.137-30.938.175-46.412.304-15.119 2.248-30.22.097-45.239-1.775-12.401-6.286-23.05-11.47-33.26-4.988-9.822-10.416-19.406-13.787-30.579-.968-3.208-1.716-6.533-2.075-9.984.157-.073.284-.014.381.178z"
        fill="#C1DEE2" />
      <path
        d="M985.957 529.617c1.749 1.263 2.726 3.11 3.908 4.934 1.47 2.266 3.199 4.312 4.669 6.58 3.064 4.729 5.757 9.748 8.55 14.668 5.305 9.338 9.332 19.292 11.326 30.096 2.068 11.197 2.625 22.753 3.492 34.117.92 12.044 1.846 24.176 1.968 36.267.055 5.417.348 11.167-.303 16.546-.405 3.348-1.916 6.202-5.322 6.175-7.237-.058-10.634-8.073-12.054-14.646-2.09-9.68-2.506-19.961-2.175-29.86.4-11.936 2.471-23.692 3.368-35.582.95-12.587.413-24.952-3.915-36.803-2.186-5.99-4.723-11.835-7.002-17.784-.97-2.533-1.765-5.135-3.075-7.494-1.458-2.623-3.267-5.005-4.409-7.831l.974.617z"
        fill="#89C5CC" />
      <path
        d="M1069.317 504.518l.666-.518c-.639 2.693-1.793 4.88-2.676 7.341-.793 2.213-1.195 4.717-1.73 7.136-1.254 5.68-2.703 11.234-3.888 16.963-2.346 11.337-1.902 23.55-.364 36.128 1.453 11.882 3.75 23.745 4.845 35.624.908 9.851 1.298 20.01.432 29.409-.588 6.383-2.516 14.005-7.77 13.36-2.474-.302-3.765-3.28-4.285-6.64-.835-5.4-1.01-11.075-1.335-16.443-.727-11.982-.871-23.927-1.015-35.786-.135-11.188-.51-22.598.238-33.505.721-10.524 2.977-20.007 6.201-28.757 1.699-4.61 3.317-9.328 5.225-13.722.915-2.107 2.033-3.97 2.949-6.075.736-1.694 1.321-3.432 2.507-4.515zM988.192 564.302c.957-1.607 3.063 3.691 3.384 4.358a202.14 202.14 0 00-.41-.993c1.9 3.158 3.638 6.446 4.718 10.067 1.07 3.585 1.987 7.243 2.99 10.853 1.883 6.774 4.31 13.356 6.016 20.19 1.662 6.661 2.08 13.209 1.678 20.098-.418 7.16-.673 14.43-.186 21.587.233 3.418 1.344 6.602 2.105 9.892.762 3.294 1.362 6.632 2.263 9.885.207-.424.234.993.233 1.1a6.83 6.83 0 01-.38 2.265c-.672 1.982-1.93 3.665-3.842 4.212-3.456.987-6.666-2.157-7.78-5.477-1.6-4.764-2.48-10.028-3.242-15.035-.7-4.591-.864-9.21-.657-13.864.409-9.18 2.07-18.238 2.52-27.414.488-9.99-1.49-19.377-3.148-29.101-.798-4.686-1.561-9.327-3.115-13.791-.629-1.808-1.449-3.403-2.308-5.073-.49-.95-1.479-2.643-.84-3.76z"
        fill="#C1DEE2" />
      <path
        d="M1016.235 548.697c-.396 11.445-1.08 22.803-2.606 34.127-1.557 11.556-3.346 23.073-4.844 34.64-1.459 11.258-2.987 22.704-2.784 34.12.15 8.41-1.244 22.635 8.095 26.785 9.46 4.203 11.488-13.746 12.11-19.67 1.19-11.366.804-22.852.226-34.28-.593-11.73-1.582-23.4-2.81-35.085-1.362-12.981-2.431-26.02-3.29-39.038-.424-6.439-.529-12.867-.411-19.308.11-6.077-.12-12.218-2.281-17.988l-.34.246"
        fill="#69A1AC" />
      <path
        d="M1065.066 584.955c-1.701 2.478-3.416 4.932-5.022 7.557-2.875 4.697-5.474 9.92-6.256 16.635-1.636 14.053-.323 29.232-.007 43.716.065 2.96-.31 5.83.857 8.647 1.058 2.554 3.036 4.5 4.92 4.49 4.036-.023 3.42-9.905 3.427-14.254.012-7.623-.843-15.324-.77-22.94.074-7.546.533-15.112 1.627-22.278 1.108-7.253 2.73-14.219 4.87-20.718.297-.902 2.429-7.873.415-6.671"
        fill="#89C5CC" />
      <path
        d="M1047.245 510c-2.653 0-2.636 13.226-2.716 14.925-.289 6.13-.22 12.263-.403 18.394-.4 13.382-.89 26.88-2.9 40.107-1.082 7.12-2.336 14.21-3.686 21.276-1.353 7.087-3.17 14.165-4.06 21.342-.855 6.899-.372 13.933-.255 20.866.117 6.975.328 13.964 1.242 20.878.225 1.706.49 3.407.773 5.103.235 1.414.098 3.167.497 4.51.639 2.151 3.379 2.855 5.224 2.52 4.993-.912 8.182-7.181 9.887-11.761 2.178-5.849 3.334-12.193 4.474-18.356 1.292-6.983 2.05-14.072 2.405-21.18.722-14.449-.205-28.912-1.24-43.314-.576-8.01-1.24-15.983-2.258-23.943-1.013-7.926-2.313-15.817-3.16-23.766-.615-5.776-1.221-11.56-1.62-17.36-.095-1.382-.175-10.241-2.204-10.241"
        fill="#69A1AC" />
      <path
        d="M1043.924 606.139c-.433-13.886-6.014-74.88-7.284-91.672-.318-4.203-3.375-21.702-3.772-26.467-1.075 1.347-.983 22.31-.972 27.126.013 4.765-.578 9.45-.882 14.19-.31 4.835-7.459 67.285-8.386 71.931-1.846 9.244-3.081 18.73-4.034 28.18-.928 9.212-2.37 18.931-1.129 28.191.286 2.132.737 4.23 1.473 6.188.794 2.116 1.339 4.073 1.977 6.287 1.026 3.566 2.883 6.696 5.736 8.169 5.85 3.019 8.99-3.815 10.583-9.765 2.543-9.502 4.175-19.16 4.94-29.138.847-11.04 2.096-22.104 1.75-33.22"
        fill="#89C5CC" />
      <g transform="translate(971.983 647)">
        <rect fill="#FFF" x="10" width="91" height="91" rx="2" />
        <rect fill="#C5CFD6" y="10" width="10" height="113" rx="2" />
        <rect fill="#C5CFD6" x="50" y="10" width="10" height="113" rx="2" />
        <rect fill="#C5CFD6" x="101" y="10" width="10" height="113" rx="2" />
      </g>
    </g>
    <g>
      <path
        d="M578.5 397c10.782 0 19.71 7.937 21.262 18.287 3.446 12.7 7.94 41.256 3.355 45.735h-29l-.008-.153C563.36 459.679 555 450.566 555 439.5v-21c0-11.874 9.626-21.5 21.5-21.5h2z"
        fill="#191847" />
      <path
        d="M596.143 410.134c5.795 10.801 5.107 38.199-2.383 40.13-2.986.77-9.349-1.116-15.824-5.02L582 474h-24l8.262-38.51c-4.608-5.41-7.726-12.037-7.205-19.465 1.501-21.4 31.292-16.692 37.086-5.891z"
        fill="#B28B67" />
      <path
        d="M577.001 398c10.294 0 14.325 4.257 17.28 8.417l.274.389.269.388.525.77c-2.328 7.984-11.36 9.168-19.384 14.146a5.5 5.5 0 10-3.215 9.765c1.106 11.878.663 25.442-2.633 28.662h-29c-.791-13.756 2.554-18.161 6.173-22.187l.444-.491c3.634-4.01 7.383-8.004 7.383-20.956.2-.195.397-.39.592-.582l.291-.288.29-.286.286-.281c.454-.444.9-.871 1.345-1.268l-.032-.777C562.91 403.14 569.28 398 577 398z"
        fill="#191847" />
      <g>
        <path
          d="M519.408 655.088c23.99 6.71 44.686 10.065 62.092 10.065 17.405 0 33.572-5.167 48.5-15.5-23.476-6.887-42.81-10.33-58-10.33-15.19 0-32.722 5.255-52.592 15.765z"
          fill="#1F28CF" />
        <path
          d="M602.267 674.824a5.657 5.657 0 01-.582-1.135C598.48 665.209 547.117 573.726 542 557h57.826c3.89 12.717 21.401 92.52 23.865 108.442 7.776 25.115 23.784 106.453 25.828 112.088 2.15 5.928-9.947 12.103-13.17 4.816-5.13-11.596-17.35-43.68-22.792-63.272-5.101-18.366-9.255-34.89-11.29-44.25z"
          fill="#B28B67" />
        <path
          d="M602.267 674.824a5.657 5.657 0 01-.582-1.135C598.48 665.209 547.117 573.726 542 557h57.826c3.89 12.717 21.401 92.52 23.865 108.442 7.776 25.115 23.784 106.453 25.828 112.088 2.15 5.928-9.947 12.103-13.17 4.816-5.13-11.596-17.35-43.68-22.792-63.272-5.101-18.366-9.255-34.89-11.29-44.25z"
          fill-opacity=".1" fill="#000" />
        <path
          d="M554.957 685.994c-23.482 5.934-109.373 16.664-115.267 18.347-6.064 1.73-11.38-10.767-3.885-13.474 11.925-4.308 44.784-14.261 64.707-18.323 16.024-3.267 30.647-5.933 40.464-7.494-.831-27.577-4.633-93.756-2.141-108.05H590c-2.39 13.707-22.59 113.718-26.344 123.729-1.192 3.573-4.747 5.153-8.699 5.265z"
          fill="#B28B67" />
        <path
          d="M436.349 687.539c-3.135-.583-5.433-.746-6.893-.489-1.776.313-4.316 1.066-7.618 2.259l9.794 55.545c5.026.602 7.455-.686 7.288-3.863-.168-3.177-.28-5.82-.336-7.932l6.957-27.846a1 1 0 00-.756-1.219l-4.318-.95c-1.85-2.642-2.935-4.863-3.252-6.663-.258-1.462-.023-3.586.703-6.37a2 2 0 00-1.57-2.472zM632.678 781.402c-1.119 2.986-1.678 5.221-1.678 6.704 0 1.803.3 4.434.901 7.894h56.402c1.466-4.845.62-7.461-2.538-7.848a312.366 312.366 0 01-7.87-1.046l-26.215-11.687a1 1 0 00-1.332.532l-1.685 4.088c-2.923 1.364-5.299 2.046-7.126 2.046-1.485 0-3.536-.6-6.153-1.8a2 2 0 00-2.706 1.117z"
          fill="#E4E4E4" />
        <path
          d="M539 557c22.547-6.45 43.88-6.45 64 0 7 31.937 24.009 44.613 27 93.579-34 16.894-76-12.049-111 4.426-10-23.044 4-78.54 20-98.005z"
          fill="#2B44FF" />
      </g>
      <g>
        <path
          d="M511.97 526.45l21.897.082c-24.01 54.034-36.53 82.325-37.56 84.874-2.313 5.734 2.584 14.468 4.678 19.161-3.042 1.361-4.582-.133-6.119-1.85l-.28-.315c-1.821-2.05-3.764-4.192-8.298-2.083-1.842.857-3.58 1.878-5.28 2.865l-.536.31c-5.342 3.09-10.362 5.647-17.083 1.5-1.115-.688-2.338-3.28.616-5.304 7.357-5.045 17.96-13.875 19.393-16.782 1.954-3.963 11.478-31.45 28.572-82.458zm185.723-19.135l-.25.21-.5.42-.25.21-.497.424c-3.876 3.321-7.326 6.727-6.627 8.472.788 1.969 4.902 1.236 5.584 4.264.454 2.018-6.223 2.346-20.032.984L643.084 535 636 517.31l39.483-5.385c7.898-4.393 15.164-7.367 21.798-8.922l.09-.002h.187c1.86.02 4.345.805.135 4.314z"
          fill="#997659" />
        <path
          d="M571.95 457l17.144 1.142c4.223 38.201 27.222 62.33 78.717 54.162l6.841 49.195c-48.13 6.22-90.339-13.05-98.99-65.22-2.239-13.506-4.007-27.561-3.713-39.279z"
          fill="#AFB9C5" />
        <path
          d="M563.477 452l.014.016 25.977 5.95c0 30.381 6.58 53.284 13.088 75.16l.574 1.928.572 1.924.57 1.92.567 1.917.562 1.917c2.051 7.024 3.993 14.041 5.599 21.268h-70.156c-.989 11.351-1.596 23.018-1.912 35h-52.53c11.903-63.336 37.028-112.336 75.374-147h1.701z"
          fill="#C5CFD6" />
        <path d="M551.912 500.26c-1.808 27.84-.744 49.088 3.19 63.74h-14.258c1.914-21.992 5.26-42.799 10.699-62.42z"
          fill-opacity=".1" fill="#000" />
      </g>
    </g>
    <g>
      <path
        d="M830.339 382.15c-6.52 12.152-5.745 42.975 2.68 45.146 3.36.866 10.519-1.255 17.804-5.646L846.25 454h27l-9.295-43.324c5.184-6.085 8.692-13.542 8.106-21.897-1.69-24.076-35.203-18.78-41.722-6.628z"
        fill="#B28B67" />
      <path
        d="M844.976 370.323c-7.575.65-14.34 2.96-16.257 4.332 0 7.172 1.39 9.3 13.26 9.112 2.916 1.54 5.158 4.193 7.493 7.67-1.032 14.397-3.766 21.596-8.201 21.596-6.652 0-12.296-4.223-15.214-4.223-2.128 0-1.653 2.662-.243 4.637 1.164 1.628 6.83 3.198 6.83 5.723 0 1.329-1.24 1.417-2.415 1.421h-.52c-.844.004-1.542.057-1.542.648 0 2.477-.786 7.135 3.513 7.135 4.35 0 16.826-1.586 18.964-8.044 1.38-4.167 2.271-12.802 2.676-25.905a6.75 6.75 0 015.522 11.529 102.342 102.342 0 005.318 6.884c7.535-4.521 13.126-17.755 5.76-30.469-2.037-6.228-6.647-9.554-12.09-11.099-4.41-1.845-8.989-2.053-12.854-.947z"
        fill="#191847" />
      <path fill="#B28B67" d="M891.213 549l-42.272 138.467-20.477 117.756h-16.056L834.046 549z" />
      <path fill-opacity=".1" fill="#000" d="M891.213 549l-42.272 138.467-20.477 117.756h-16.056L834.046 549z" />
      <path
        d="M906.336 549c-2.871 76.026.508 115.24 1.15 122.148.643 6.907 9.442 51.694 30.274 136.394l-17.109-5.887c-32.922-77.682-44.14-118.055-47.917-128.256-3.776-10.2-13.805-51.667-30.086-124.399h63.688z"
        fill="#B28B67" />
      <path
        d="M937.535 801.312c1.321 3.49 1.982 6.092 1.982 7.803 0 2.03-.338 4.991-1.013 8.885h-63.358c-1.646-5.454-.696-8.398 2.852-8.833 3.547-.435 6.494-.827 8.84-1.178l29.563-13.205a1 1 0 011.333.533l1.941 4.718c3.284 1.535 5.952 2.303 8.005 2.303 1.711 0 4.091-.71 7.14-2.13a2 2 0 012.715 1.104zM831.941 801.312c1.322 3.49 1.982 6.092 1.982 7.803 0 2.03-.337 4.991-1.012 8.885h-63.358c-1.647-5.454-.696-8.398 2.851-8.833 3.547-.435 6.494-.827 8.84-1.178l29.564-13.205a1 1 0 011.332.533l1.942 4.718c3.284 1.535 5.952 2.303 8.005 2.303 1.711 0 4.09-.71 7.14-2.13a2 2 0 012.714 1.104z"
        fill="#E4E4E4" />
      <path fill="#69A1AC" d="M896.83 549l-17.973 70.547h-54.898L832.144 549z" />
      <path d="M906.94 549c5.914 17.761 7.037 41.277 3.37 70.547h-56.021L838.884 549h68.056z" fill="#89C5CC" />
      <g>
        <path
          d="M931.425 525.12l-23.268 3.363c20.885 44.302 32.1 67.79 33.643 70.462 3.475 6.015-.616 16.494-2.215 22.041 3.94 1.135 5.344-1.247 6.934-3.625l.24-.357c1.617-2.368 3.555-4.556 8.535-3.042 1.06.322 2.097.69 3.119 1.079l.61.235.305.12.605.24.603.243.599.243c6.87 2.792 13.161 5.448 20.4-.547 1.135-.94 2.092-4.013-1.514-5.803-8.986-4.458-22.178-12.617-24.228-15.625-2.796-4.102-10.919-27.11-24.368-69.027zm-140.686 15.353l-27.24 35.167c-8.633 5.2-15.55 10.575-20.75 16.124-.15.241-.298.51-.426.79l-.083.187c-.728 1.725-.593 3.668 4.419 1.807.322-.12.645-.239.969-.357l.648-.235c.323-.117.647-.232.97-.345l.643-.223c4.92-1.691 9.47-2.823 10.66-1.303 1.45 1.85-1.554 5.42.972 7.754 1.684 1.556 5.732-4.714 12.142-18.81l30.102-23.925-13.026-16.631z"
          fill="#B28B67" />
        <path
          d="M851.56 436.904l-9.865-.296c-10.773 43.69-34.448 85.338-71.026 124.946l36.552 33.484c34.56-53.934 53.052-107.168 44.339-158.134z"
          fill="#191847" />
        <path
          d="M910.538 551.848l-85.782 12.056c13.095-51.03 17.273-93.401 12.534-127.117l25.336-7.485c24.924 29.79 36.317 69.18 47.912 122.546z"
          fill="#DDE3E9" />
        <path
          d="M861.474 429.464c-2.011.353-5.072.911-9.182 1.673l-3.746 18.715c2.395 21.84 4.692 66.21 6.89 133.107l56.232-7.903c.493 4.573.895 9.201 1.208 13.886l41.811-5.876c-16.153-69.555-46.65-120.836-91.493-153.844l-.017.022-.014-.018z"
          fill="#2F3676" />
        <path
          d="M895.995 577.706l15.72-2.21c-2.18-20.509-6.162-39.894-11.945-58.154 2.386 28.597 1.128 48.718-3.775 60.364z"
          fill-opacity=".1" fill="#000" />
        <path fill-opacity=".2" fill="#FFF" d="M894.368 542.78l-29.535-8.97 1.808 12.866z" />
      </g>
    </g>
  </g>
</svg>
