<svg xmlns="http://www.w3.org/2000/svg" viewBox="0 0 360 256">
  <g fill="none" fill-rule="evenodd">
    <path fill-opacity=".5" fill="#7E8385" d="M0 0h360v256H0z" />
    <path
      d="M157.73 147.536c-10.898 0-19.73-8.75-19.73-19.546 0-10.791 8.832-19.54 19.73-19.54 4.421 0 8.505 1.439 11.795 3.873h.009V98c22.431 0 41.997 12.057 52.466 30.003C211.526 145.937 191.953 158 169.534 158v-14.313c-3.29 2.431-7.383 3.85-11.805 3.85zm38.06-17.16c-1.193 6.447-7.139 10.656-13.28 9.403a11.056 11.056 0 01-4.51-2.06l7.101-5.027c4.94-3.498 6.456-10.335 3.599-15.692 5.061 2.012 8.159 7.615 7.09 13.376zM153.3 139c-2.858-5.358-1.344-12.195 3.6-15.691l7.1-5.027a11.057 11.057 0 00-4.51-2.061c-6.142-1.253-12.086 2.956-13.28 9.401-1.069 5.764 2.029 11.364 7.09 13.378zm18.7-15.184l5.37-3.581c1.776-1.201 4.194-.71 5.39 1.066 1.196 1.778.733 4.205-1.042 5.406L172 133.17v9.316A19.36 19.36 0 00185.552 148c10.74 0 19.448-8.732 19.448-19.504 0-10.767-8.708-19.496-19.448-19.496A19.346 19.346 0 00172 114.5v9.316zm-3 10.058V124l-8.206 5.464c-1.867 1.27-2.354 3.834-1.094 5.713 1.256 1.877 3.803 2.396 5.671 1.127l3.629-2.43z"
      fill="#000" opacity=".201" />
  </g>
</svg>
