<svg xmlns="http://www.w3.org/2000/svg" viewBox="0 0 360 256">
  <g fill="none" fill-rule="evenodd">
    <path fill-opacity=".5" fill="#7E8385" d="M0 0h360v256H0z" />
    <path
      d="M148.715 156.176c-15.308 0-27.715-12.395-27.715-27.69 0-15.288 12.407-27.683 27.715-27.683 6.212 0 11.949 2.04 16.57 5.489h.012V86c31.512 0 58.997 17.08 73.703 42.505C224.287 153.91 196.79 171 165.297 171v-20.277c-4.62 3.445-10.371 5.453-16.582 5.453zm53.98-24.565c-1.721 8.97-10.31 14.825-19.18 13.082a16.259 16.259 0 01-6.515-2.867l10.257-6.994c7.137-4.867 9.326-14.379 5.199-21.832 7.31 2.8 11.784 10.595 10.24 18.61zM142.546 144c-4.129-7.454-1.941-16.966 5.198-21.832L158 115.174a16.26 16.26 0 00-6.515-2.867c-8.871-1.743-17.457 4.113-19.18 13.08-1.545 8.02 2.929 15.812 10.24 18.613zM168 121.895l7.648-5.051c2.53-1.694 5.974-1.002 7.677 1.504a5.476 5.476 0 01-1.484 7.624L168 135.086v13.138A27.715 27.715 0 00187.301 156C202.597 156 215 143.685 215 128.494 215 113.311 202.597 101 187.301 101c-7.504 0-14.312 2.943-19.301 7.756v13.139zm-3 15.776V124l-11.488 7.566a5.688 5.688 0 00-1.532 7.91c1.758 2.6 5.324 3.317 7.94 1.56l5.08-3.365z"
      fill="#000" opacity=".201" />
  </g>
</svg>
