<?xml version="1.0" encoding="UTF-8"?>
<svg width="512px" height="512px" viewBox="0 0 512 512" version="1.1" xmlns="http://www.w3.org/2000/svg" xmlns:xlink="http://www.w3.org/1999/xlink">
    <title>favicon</title>
    <g id="favicon" stroke="none" stroke-width="1" fill="none" fill-rule="evenodd">
        <circle id="Oval" fill="#FFFFFF" cx="256" cy="256" r="235"></circle>
        <path d="M163.734847,337.226624 C118.59111,337.226624 82,300.624478 82,255.456118 C82,210.315473 118.59111,173.713327 163.734847,173.713327 C182.054647,173.713327 198.975178,179.73439 212.605349,189.919616 L212.639985,189.919616 L212.639985,130 C305.571291,130 386.629594,180.4365 430,255.513857 C386.608813,330.535785 305.518184,381 212.639985,381 L212.639985,321.124266 C199.012122,331.295635 182.052338,337.226624 163.734847,337.226624 L163.734847,337.226624 Z M325.609005,264.837612 C320.487589,291.236055 294.938234,308.470104 268.55532,303.340538 C261.323456,301.936316 254.75659,298.970822 249.173369,294.90366 L279.684818,274.318418 C300.913989,259.994433 307.425438,232.000074 295.148355,210.06373 C316.894747,218.301984 330.203964,241.245303 325.609005,264.837612 L325.609005,264.837612 Z M146.227824,300.93627 C133.948432,278.997617 140.455263,251.000948 161.693669,236.681582 L192.205118,216.09634 C186.626515,212.026868 180.050414,209.063684 172.825476,207.657152 C146.435636,202.527586 120.895517,219.761635 115.767173,246.155459 C111.172215,269.759317 124.481432,292.691087 146.227824,300.93627 L146.227824,300.93627 Z M220.689244,235.894017 L243.257649,220.87716 C250.720416,215.842286 260.884741,217.900118 265.911487,225.348497 C270.935925,232.801496 268.989417,242.977484 261.531268,248.014667 L220.689244,275.112912 L220.689244,314.170136 C235.409275,328.475644 255.497787,337.288982 277.643641,337.288982 C322.778141,337.288982 359.376179,300.677598 359.376179,255.513857 C359.376179,210.373213 322.778141,173.773376 277.643641,173.773376 C255.500096,173.773376 235.409275,182.524356 220.689244,196.832174 L220.689244,235.894017 Z M212.605349,280.480364 L212.605349,241.303042 L179.840292,262.985333 C172.384453,268.024826 170.440254,278.198504 175.471618,285.651503 C180.486819,293.102192 190.655763,295.157714 198.116221,290.12515 L212.605349,280.480364 Z" id="Fill-23" fill="#00ABBF"></path>
    </g>
</svg>