<svg xmlns="http://www.w3.org/2000/svg" viewBox="0 0 20 20">
  <path
    d="M16.152 5.287l.12.01c.16.028.28.101.363.222.062.09.091.195.089.315l-.013.126-.199 1.098a.526.526 0 01-.03.105l-.03.058a.636.636 0 01-.12.193l-.088.082-1.09.874c.065.113.127.233.186.36.217.468.384.97.502 1.507.047.216.084.426.113.631h1.208c.057 0 .11.006.16.015a.493.493 0 01.25.096c.119.087.194.216.225.386l.194 1.099a.54.54 0 01-.45.62.55.55 0 01-.637-.433l-.128-.707-.761-.001c-.02.864-.172 1.653-.459 2.366l-.141.322a5.941 5.941 0 01-.177.344l.992.811c.132.11.213.24.242.391l-.019-.077a.725.725 0 01.053.172l.194 1.099a.54.54 0 01-.449.62.55.55 0 01-.638-.433l-.186-1.028-.81-.661c-.191.223-.401.43-.628.619l-.265.206c-.726.53-1.578.86-2.555.987-.234.03-.41.004-.53-.076a.394.394 0 01-.167-.262l-.011-.123V9.74a.436.436 0 00-.135-.32.452.452 0 00-.332-.136.456.456 0 00-.329.135.439.439 0 00-.13.23l-.009.09v7.481c0 .176-.06.304-.178.385-.12.08-.293.106-.523.076-.977-.127-1.83-.456-2.559-.987a5.254 5.254 0 01-.895-.825l-.811.66-.186 1.029A.546.546 0 013.85 18l-.111-.008a.543.543 0 01-.457-.513l.007-.108.195-1.099a.702.702 0 01.066-.2.698.698 0 01.122-.198l.088-.088.993-.808a5.914 5.914 0 01-.179-.347c-.35-.739-.548-1.565-.592-2.477l-.006-.213-.753.003-.127.707a.546.546 0 01-.527.442l-.111-.008A.543.543 0 012 12.572l.008-.108.194-1.099a.587.587 0 01.226-.386.502.502 0 01.231-.095l.08-.011.087-.004h1.209a8.12 8.12 0 01.112-.632 7.129 7.129 0 01.505-1.506 4.56 4.56 0 01.187-.358l-1.087-.877a.64.64 0 01-.247-.386l.003.053a.526.526 0 01-.03-.105l-.2-1.098a.572.572 0 01.077-.441.527.527 0 01.363-.222.538.538 0 01.427.09c.12.087.194.216.225.386l.172.97.99.797c.126-.1.239-.168.338-.202l.09-.023a.75.75 0 01.4.043 8.208 8.208 0 001.693.537c.622.13 1.27.195 1.942.195.672 0 1.319-.065 1.941-.195a8.21 8.21 0 001.694-.537.759.759 0 01.403-.043c.117.017.254.087.412.209l.019.017.983-.798.172-.97a.624.624 0 01.144-.313l.082-.074a.51.51 0 01.307-.1zm-3.51-3.247c.178-.06.328-.053.45.02a.575.575 0 01.256.306.51.51 0 01-.008.386.427.427 0 01-.222.22l-.569.203c-.145.045-.244.105-.299.18a.301.301 0 00-.057.173l.01.104.04.154c.396.216.715.483.955.801.3.4.45.844.45 1.334a.895.895 0 01-.127.48c-.085.138-.241.26-.469.367-.374.173-.83.307-1.37.403a9.596 9.596 0 01-1.687.144 9.595 9.595 0 01-1.687-.144c-.54-.096-.996-.23-1.37-.403-.228-.106-.383-.229-.466-.367a.911.911 0 01-.125-.48c0-.49.15-.935.448-1.334a2.9 2.9 0 01.95-.8l.04-.155c.027-.11.013-.203-.044-.277a.485.485 0 00-.202-.143l-.55-.197c-.173-.049-.286-.136-.337-.263a.557.557 0 01.247-.692.48.48 0 01.325-.052l.128.032.532.203c.344.118.594.296.75.534.118.179.18.384.188.615a5.42 5.42 0 011.173-.118c.424 0 .816.039 1.176.117.003-.23.067-.435.186-.614.127-.19.313-.342.558-.456l.727-.281z"
    fill="currentColor" fill-rule="nonzero" />
</svg>
