<svg xmlns="http://www.w3.org/2000/svg" viewBox="0 0 20 20" fill="currentColor">
  <path
    d="M12.429 2.993c0 .296.061.519.185.667.124.148.376.251.758.308.285.057.49.16.614.308s.185.37.185.667v1.951c0 .924.077 1.603.23 2.037.16.433.428.792.799 1.078-.38.296-.648.644-.8 1.043-.152.4-.229 1.09-.229 2.071v1.865c0 .331-.052.57-.157.719-.114.148-.328.25-.642.308-.382.068-.634.177-.758.325-.124.149-.185.37-.185.668 0 .308.085.553.257.735.152.172.376.257.671.257.41 0 .805-.091 1.186-.274.38-.182.671-.416.871-.701.181-.274.31-.6.386-.976.076-.376.114-1.055.114-2.036v-1.06c0-1.096.367-1.724 1.1-1.883l.343-.086a.79.79 0 00.486-.325c.105-.171.157-.388.157-.65 0-.263-.048-.474-.143-.633a.863.863 0 00-.485-.343l-.386-.085c-.715-.171-1.072-.793-1.072-1.866V5.987c0-1.038-.047-1.762-.143-2.173a2.298 2.298 0 00-.542-1.027 2.175 2.175 0 00-.829-.581A2.685 2.685 0 0013.343 2c-.295 0-.52.086-.672.257-.161.17-.242.416-.242.736M7.57 2.924c0-.274-.08-.496-.242-.667C7.167 2.086 6.948 2 6.67 2c-.438 0-.838.091-1.2.274a2.15 2.15 0 00-.871.736c-.181.285-.31.616-.386.992-.085.377-.128 1.038-.128 1.985v1.095c0 1.073-.338 1.683-1.015 1.831l-.428.12a.862.862 0 00-.486.343c-.105.148-.157.359-.157.633 0 .296.062.524.186.684.114.16.295.268.543.325.028 0 .057.006.085.017.848.16 1.272.799 1.272 1.917v1.06c0 1.028.052 1.746.157 2.157.105.422.276.764.514 1.027.22.25.5.45.843.599.333.137.681.205 1.043.205.286 0 .514-.086.686-.257.161-.17.242-.399.242-.684 0-.582-.29-.924-.871-1.027l-.257-.051c-.229-.057-.386-.166-.472-.325-.085-.16-.128-.542-.128-1.147v-1.386c0-.981-.076-1.671-.229-2.07-.152-.4-.423-.748-.814-1.044.381-.286.652-.645.814-1.079.153-.433.229-1.112.229-2.036V5.525c0-.616.047-1.01.143-1.18.095-.183.271-.297.528-.343a2.69 2.69 0 00.129-.034c.619-.114.928-.462.928-1.044z" />
</svg>
