<svg viewBox="0 0 26 26" xmlns="http://www.w3.org/2000/svg" fill="currentColor">
  <path
    d="M1 18.1a1 1 0 01-1-1V8.9a1 1 0 011-1h5l5.143-5.247a.5.5 0 01.849.26l.008.09v19.994a.5.5 0 01-.788.409l-.07-.059L6 18.101H1z" />
  <path
    d="M16.012 7.446a1 1 0 011.387.275A9.479 9.479 0 0119 13a9.474 9.474 0 01-1.6 5.279 1 1 0 01-1.663-1.113A7.479 7.479 0 0017 13a7.474 7.474 0 00-1.263-4.166 1 1 0 01.275-1.388z"
    fill-rule="nonzero" />
  <path
    d="M19.192 2.393a1 1 0 011.415 0 15.069 15.069 0 013.255 4.865A14.957 14.957 0 0125 13a14.957 14.957 0 01-4.393 10.607 1 1 0 11-1.415-1.415 13.069 13.069 0 002.822-4.216C22.662 16.413 23 14.73 23 13a12.957 12.957 0 00-3.808-9.192 1 1 0 010-1.415z"
    fill-rule="nonzero" />
  <path
    d="M3.616 1.616a1.25 1.25 0 011.666-.091l.102.091 20 20a1.25 1.25 0 01-1.666 1.859l-.102-.091-20-20a1.25 1.25 0 010-1.768z"
    fill-rule="nonzero" />
</svg>
