<svg xmlns="http://www.w3.org/2000/svg" viewBox="0 0 28 20">
  <path
    d="M10.188 0l.24.286c-4.315 1.238-6.305 3.12-6.305 3.12l.23-.12c.235-.121.643-.324 1.185-.571 2.565-1.12 4.602-1.429 5.441-1.5.144-.024.264-.048.408-.048a20.422 20.422 0 014.842-.047c2.278.262 4.723.928 7.216 2.285l-.048-.043c-.318-.28-2.22-1.856-5.921-2.98L17.812 0l.13.002c.644.018 3.56.23 6.606 2.499l.116.219C25.266 3.885 28 9.558 28 16.38l-.04.063c-.307.468-2.422 3.403-7.296 3.556l-.635-.762c-.286-.347-.63-.768-.947-1.167 3.14-.88 4.34-2.833 4.34-2.833a13.754 13.754 0 01-2.758 1.405c-1.128.47-2.213.793-3.277.989l-.199.035c-2.301.428-4.41.31-6.209-.024a20.228 20.228 0 01-3.524-1.024 14.094 14.094 0 01-1.75-.81c-.071-.047-.143-.07-.215-.118a.33.33 0 01-.096-.072l-.153-.086a9.061 9.061 0 01-.44-.267l-.078-.052s1.15 1.905 4.195 2.81l-.478.596C7.857 19.34 7.312 20 7.312 20 2.014 19.833 0 16.381 0 16.381c0-7.666 3.452-13.88 3.452-13.88C6.904-.071 10.188 0 10.188 0zm-.67 8.881c-1.367 0-2.446 1.19-2.446 2.643 0 1.452 1.103 2.643 2.445 2.643 1.345 0 2.41-1.153 2.444-2.573l.001-.07c.024-1.452-1.078-2.643-2.445-2.643zm8.75 0c-1.367 0-2.446 1.19-2.446 2.643 0 1.452 1.103 2.643 2.445 2.643 1.367 0 2.445-1.19 2.445-2.643 0-1.452-1.078-2.643-2.445-2.643z"
    fill="currentColor" fill-rule="nonzero" />
</svg>
