<svg width="360px" height="256px" viewBox="0 0 360 256" version="1.1" xmlns="http://www.w3.org/2000/svg">
    <g stroke="none" stroke-width="1" fill="none" fill-rule="evenodd">
        <rect fill-opacity="0.5" fill="#7E8385" x="0" y="0" width="360" height="256"></rect>
        <path d="M205.054273,97 L205.054273,108.660424 L185.814574,127.900123 C185.517349,128.197348 185.494485,128.665039 185.745983,128.988489 L185.814574,129.066165
        L205.054273,148.305864 L205.054273,159.966859 L179.617819,134.529458 L154.675342,159.473153 C154.051713,160.096782 153.061004,160.129604 152.398735,159.571621
         L152.291517,159.473153 L122.493706,129.675342 C121.870077,129.051713 121.837255,128.061004 122.395239,127.398735 L122.493706,127.291517 L152.291517,97.4937063
         C152.915146,96.8700773 153.905855,96.8372547 154.568124,97.3952386 L154.675342,97.4937063 L179.617819,122.435987 L205.054273,97 Z M207.580189,97 L237.89729,127.317101
         C238.507383,127.927195 238.539493,128.896401 237.99362,129.544296 L237.89729,129.649186 L207.580189,159.966288 L207.580189,148.305864 L226.819888,129.066165 C227.117112,128.76894
         227.139976,128.301249 226.888478,127.977798 L226.819888,127.900123 L207.580189,108.660424 L207.580189,97 Z M152.966872,108.746762 L152.887473,108.816874 L133.816874,127.887473
         C133.513055,128.191293 133.489684,128.66936 133.746762,128.999987 L133.816874,129.079386 L152.887473,148.149985 C153.191293,148.453804 153.66936,148.477175 153.999987,148.220097
         L154.079386,148.149985 L173.149985,129.079386 C173.453804,128.775567 173.477175,128.297499 173.220097,127.966872 L173.149985,127.887473 L154.079386,108.816874 C153.775567,108.513055
         153.297499,108.489684 152.966872,108.746762 Z M207.580189,112.170569 L223.547956,128.138336 C223.815191,128.405571 223.815191,128.838844 223.547956,129.106079 L207.580189,145.073846
         L207.580189,112.170569 Z" fill="#000000" fill-rule="nonzero" opacity="0.2"></path>
    </g>
</svg>