<svg width="360px" height="256px" viewBox="0 0 360 256" version="1.1" xmlns="http://www.w3.org/2000/svg">
    <g stroke="none" stroke-width="1" fill="none" fill-rule="evenodd" fill-opacity="0.35">
        <rect fill="#7E8385" x="0" y="0" width="360" height="256"></rect>
        <path d="M151.629241,96.8609657 L173.971004,119.31897 C175.142854,120.497307 176.96531,120.62563 178.278856,119.703176 L201.549932,96.7292845 C202.013103,96.2635476 202.641656,96.0018097 203.29711,96.0018097 C204.612215,96.0018097 205.687475,97.0340813 205.762601,98.3358192 L205.766795,103.074637 C205.766795,103.906431 205.461562,104.706654 204.913276,105.324205 L183.651631,126.359444 C182.995409,127.019301 182.995409,128.08822 183.651631,128.748077 L203.940947,149.651381 C204.526258,150.239934 204.873298,151.022784 204.919889,151.848826 L204.925279,156.633742 C204.925279,157.292014 204.664436,157.923269 204.200618,158.388431 C203.274148,159.317586 201.796017,159.353801 200.826536,158.497776 L178.248937,135.383186 C176.989607,134.519096 175.27542,134.609473 174.111141,135.654981 L151.766565,158.116733 C150.496721,159.393675 148.462838,159.437605 147.140437,158.247512 L118.984332,129.942876 C117.671889,128.623163 117.671889,126.485323 118.984332,125.16561 L147.003111,96.9916272 C148.272986,95.7147173 150.306871,95.6708388 151.629241,96.8609657 Z M212.250328,96 C212.916739,96 213.555148,96.2675569 214.021895,96.7423903 L241.913915,125.45361 C243.198586,126.760536 243.198586,128.853641 241.913915,130.160567 L214.022238,158.370966 C213.062023,159.347815 211.49035,159.363121 210.511807,158.404569 C210.036112,157.938591 209.767884,157.297355 209.767884,156.632045 L209.767884,151.944516 C209.767884,151.064262 210.113827,150.22063 210.731428,149.592351 L231.15154,128.98336 C231.793902,128.329892 231.793902,127.283309 231.15154,126.629841 L210.731428,105.52067 C210.113827,104.892391 209.767884,104.047271 209.767884,103.167018 L209.767884,98.4777662 C209.767884,97.1092798 210.879469,96 212.250328,96 Z M148.195535,107.777157 L129.715132,126.359927 C129.058911,127.019783 129.058911,128.088703 129.715132,128.748559 L148.193971,147.329758 C148.816233,147.955467 149.805399,147.98903 150.467017,147.42999 L150.5757,147.329758 L169.054538,128.748559 C169.71076,128.088703 169.71076,127.019783 169.054538,126.359927 L150.5757,107.778728 C149.918868,107.118258 148.853232,107.117554 148.195535,107.777157 Z" fill="#000000" fill-rule="nonzero"></path>
        <path d="M212.583147,113.513067 L225.319552,125.931212 C225.950051,126.545956 225.995335,127.534651 225.446618,128.202898 L225.319537,128.341313 L212.583132,140.759158 C211.917597,141.408046 210.852046,141.394552 210.203158,140.729017 C209.896703,140.414701 209.725184,139.993087 209.725184,139.5541 L209.725184,114.718111 C209.725184,113.788598 210.478703,113.03508 211.408215,113.03508 C211.847209,113.03508 212.268829,113.206604 212.583147,113.513067 Z" fill="#000000" fill-rule="nonzero"></path>
    </g>
</svg>