<svg width="60px" height="60px" viewBox="0 0 60 60" xmlns="http://www.w3.org/2000/svg">
    <g stroke="none" stroke-width="1" fill="none" fill-rule="evenodd">
        <path d="M30.6255979,6.21755616 C30.8812526,6.36364458 31.0931289,6.57552082 31.2392173,6.83117554 L56.3976035,50.8583514 C56.8494603,51.6491009 56.5747336,52.6564323 55.7839841,53.1082891 C55.5348161,53.2506708 55.2528045,53.3255631 54.9658249,53.3255631 L4.64905252,53.3255631 C3.73830596,53.3255631 3,52.5872571 3,51.6765106 C3,51.389531 3.07489224,51.1075194 3.21727398,50.8583514 L28.3756602,6.83117554 C28.827517,6.04042609 29.8348484,5.76569933 30.6255979,6.21755616 Z M31.8074387,42.8969917 L27.8074387,42.8969917 L27.8074387,46.3255631 L31.8074387,46.3255631 L31.8074387,42.8969917 Z M31.8074387,22.3255631 L27.8074387,22.3255631 L27.8074387,39.4684202 L31.8074387,39.4684202 L31.8074387,22.3255631 Z" fill="#F7B500"></path>
    </g>
</svg>
