<svg viewBox="0 0 20 20" xmlns="http://www.w3.org/2000/svg" class="fill-gray-700">
    <path d="M15.1330076,4.4701111 L15.9421616,5.69834531 L17.1704261,6.5075296 L15.9654706,7.28084477 L15.1921554,8.48580033 L14.3831087,7.2573983
      L13.1547369,6.44838183 L14.3596622,5.67503641 L15.1330076,4.4701111 Z M15.154332,5.91888572 L14.9390095,6.25438375 L14.6036491,6.46956861
      L14.9455,6.69503723 L15.1707967,7.03671621 L15.3861535,6.70152769 L15.7214796,6.48603332 L15.379663,6.26087421 L15.154332,5.91888572 Z
      M12.8168674,3.6 L13.2511333,4.24836553 L13.9188841,4.67002438 L13.2511333,5.09168324 L12.8168674,5.74004877 L12.3826014,5.09168324
      L11.7148506,4.67002438 L12.3826014,4.24836553 L12.8168674,3.6 Z"></path>

    <path d="M9.81136713,3.58790695 C5.97157433,3.58790695 2.85,6.61885966 2.85,10.3689535 C2.85,14.1190473 5.97157433,17.15
      9.81136713,17.15 C12.5587554,17.15 15.0176745,15.584577 16.1436534,13.1898113 L16.8540867,11.6788405 L15.2526857,12.151348
      C14.8245346,12.2776777 14.3766492,12.3426519 13.9188841,12.3426519 C11.3957578,12.3426519 9.35916704,10.3651849 9.35916704,7.93707988
      C9.35916704,6.77908699 9.82276338,5.69246135 10.6404584,4.8752576 L11.8427584,3.6736798 L10.1447561,3.59556066 C10.0339512,3.59046292
      9.92280063,3.58790695 9.81136713,3.58790695 Z M8.531,5.233 L8.47686753,5.33630146 C8.0756463,6.13273574 7.85916704,7.0184159
      7.85916704,7.93707988 L7.86335407,8.1588053 C7.98302986,11.3222534 10.6530095,13.8426519 13.925,13.842 L13.9047634,13.866182
      C12.8904628,14.9756636 11.4153803,15.65 9.81136713,15.65 C6.79027325,15.65 4.35,13.2805697 4.35,10.3689535 C4.35,7.88342743
      6.1283074,5.7930101 8.531,5.233 Z" fill-rule="nonzero"></path>
</svg>
