<svg width="20" height="20" viewBox="0 0 20 20" xmlns="http://www.w3.org/2000/svg">
  <g fill="none" fill-rule="evenodd">
    <path
      d="M16.416 3.088l1.012 1.535 1.535 1.011-1.506.967-.967 1.506-1.011-1.535-1.536-1.012 1.507-.966.966-1.506zm.027 1.81l-.27.42-.418.269.427.282.281.427.27-.42.419-.268-.427-.282-.282-.427zM13.52 2l.543.81.835.528-.835.527-.543.81-.543-.81-.834-.527.834-.528.543-.81z"
      class="fill-gray-700 dark:fill-gray-300" />
    <path
      d="M9.764 2.922c.125 0 .25.003.374.009a6.328 6.328 0 00-1.877 4.49c0 3.56 2.972 6.445 6.638 6.445a6.82 6.82 0 001.932-.278C15.607 16.191 12.903 18 9.764 18 5.476 18 2 14.625 2 10.461c0-4.163 3.476-7.539 7.764-7.539z"
      class="stroke-gray-700 dark:stroke-gray-300" />
  </g>
</svg>
