<svg width="24px" height="24px" viewBox="0 0 24 24" version="1.1" xmlns="http://www.w3.org/2000/svg">
    <g stroke="none" stroke-width="1" fill="none" fill-rule="evenodd">
        <circle fill="#F7B500" cx="12" cy="12" r="12"></circle>
        <path d="M12.4961389,5.14732129 C12.6511702,5.2359106 12.7796538,5.36439422 12.8682431,5.5194255 L19.1450635,16.5038611 C19.4190734,16.9833785 19.2524767,17.5942332
            18.7729593,17.8682431 C18.6218616,17.9545847 18.4508473,18 18.2768203,18 L5.72317968,18 C5.17089493,18 4.72317968,17.5522847 4.72317968,17 C4.72317968,16.8259731
            4.768595,16.6549588 4.85493654,16.5038611 L11.1317569,5.5194255 C11.4057668,5.03990805 12.0166215,4.87331133 12.4961389,5.14732129
            Z M12.5,15 L11.5,15 L11.5,16 L12.5,16 L12.5,15 Z M12.5,9 L11.5,9 L11.5,14 L12.5,14 L12.5,9 Z" fill="#FFFFFF"></path>
    </g>
</svg>