<svg width="26px" height="26px" viewBox="0 0 26 26" version="1.1" xmlns="http://www.w3.org/2000/svg">
    <g stroke="none" stroke-width="1" fill="none" fill-rule="evenodd">
        <path d="M9,20.75 L3.28797468,20.75 C2.7147171,20.75 2.25,20.3022847 2.25,19.75 L2.25,3.25 C2.25,2.69771525
        2.7147171,2.25 3.28797468,2.25 L21.7120253,2.25 C22.2852829,2.25 22.75,2.69771525 22.75,3.25 L22.75,12" stroke="#FFFFFF" stroke-width="2.5"></path>
        <rect fill="#FFFFFF" x="11" y="14" width="14" height="11" rx="1"></rect>
        <path d="M9.5,12.25 C9.08578644,12.25 8.75,11.9142136 8.75,11.5 C8.75,11.1203042 9.03215388,10.806509 9.39822944,10.7568466
        L9.5,10.75 L10.689,10.75 L5.96966991,6.03033009 C5.6767767,5.73743687 5.6767767,5.26256313 5.96966991,4.96966991
        C6.23593648,4.70340335 6.65260016,4.6791973 6.94621165,4.89705176 L7.03033009,4.96966991 L11.75,9.689 L11.75,8.5
        C11.75,8.08578644 12.0857864,7.75 12.5,7.75 C12.8796958,7.75 13.193491,8.03215388 13.2431534,8.39822944 L13.25,8.5
        L13.25,11.5 C13.25,11.8796958 12.9678461,12.193491 12.6017706,12.2431534 L12.5,12.25 L9.5,12.25 Z" fill="#FFFFFF" fill-rule="nonzero"></path>
    </g>
</svg>