<svg viewBox="0 0 20 20" xmlns="http://www.w3.org/2000/svg" fill="currentColor">
  <path
    d="M17 1H3a2 2 0 00-2 2v14a2 2 0 002 2h14a2 2 0 002-2V3a2 2 0 00-2-2zM3.25 3h13.5a.25.25 0 01.25.25v12.5a.25.25 0 01-.25.25H3.25a.25.25 0 01-.25-.25V3.25A.25.25 0 013.25 3z" />
  <path
    d="M12.607 14a1.897 1.897 0 001.893-1.897 1.884 1.884 0 00-1.889-1.881l-.671-.005V8.783l.671-.005A1.89 1.89 0 0014.5 6.892 1.893 1.893 0 0012.607 5a1.901 1.901 0 00-1.889 1.892v.658H9.282v-.658A1.901 1.901 0 007.393 5 1.893 1.893 0 005.5 6.892a1.89 1.89 0 001.889 1.886l.671.005v1.434l-.671.005A1.884 1.884 0 005.5 12.103C5.5 13.142 6.342 14 7.393 14a1.906 1.906 0 001.889-1.897v-.658h1.436v.658c0 1.034.852 1.897 1.889 1.897zM8.055 7.56h-.618c-.399 0-.696-.298-.696-.663 0-.366.292-.659.652-.659.356 0 .662.303.662.702v.62zm4.508 0h-.618v-.62c0-.4.306-.702.662-.702.365 0 .657.293.657.659 0 .365-.302.663-.701.663zm-1.845 2.657H9.287V8.778h1.431v1.439zm-3.325 2.54a.654.654 0 01-.652-.658c0-.366.297-.663.696-.663h.618v.619c0 .4-.306.702-.662.702zm5.214 0c-.356 0-.662-.303-.662-.702v-.62h.618c.399 0 .7.298.7.664a.655.655 0 01-.656.658z" />
</svg>
