<svg width="20px" height="20px" viewBox="0 0 20 20">
  <g stroke="none" stroke-width="1" fill="none" fill-rule="evenodd">
    <path
      d="M17.75,15.75 L17.75,18.25 C17.75,18.8022847 17.3022847,19.25 16.75,19.25 L1.75,19.25 C1.19771525,19.25 0.75,18.8022847 0.75,18.25 L0.75,1.75
                C0.75,1.19771525 1.19771525,0.75 1.75,0.75 L16.75,0.75 C17.3022847,0.75 17.75,1.19771525 17.75,1.75 L17.75,4.25"
      class="stroke-gray-700 dark:stroke-gray-300"
      stroke-width="1.5"
    ></path>
    <path
      d="M19.4192388,10.3585786 C19.4973437,10.4366835 19.4973437,10.5633165 19.4192388,10.6414214 L14.6414214,15.4192388 C14.5633165,15.4973437
                14.4366835,15.4973437 14.3585786,15.4192388 L13.5807612,14.6414214 C13.5026563,14.5633165 13.5026563,14.4366835 13.5807612,14.3585786 L16.689,11.2491825
                L4.95,11.25 C4.83954305,11.25 4.75,11.1604569 4.75,11.05 L4.75,9.95 C4.75,9.83954305 4.83954305,9.75 4.95,9.75 L16.688,9.74918254 L13.5807612,6.64142136
                C13.5026563,6.5633165 13.5026563,6.4366835 13.5807612,6.35857864 L14.3585786,5.58076118 C14.4366835,5.50265633 14.5633165,5.50265633 14.6414214,5.58076118 L19.4192388,10.3585786 Z"
      class="fill-gray-700 dark:fill-gray-300"
      fill-rule="nonzero"
    ></path>
  </g>
</svg>
