<svg width="60px" height="60px" viewBox="0 0 60 60" xmlns="http://www.w3.org/2000/svg">
    <g stroke="none" stroke-width="1" fill="none" fill-rule="evenodd">
        <path d="M30,3 C37.7319865,3 44,9.2680135 44,17 L44,25 L45,25 C48.3137085,25 51,27.6862915 51,31 L51,51 C51,54.3137085 48.3137085,57 45,57 L15,57 C11.6862915,57 9,54.3137085 9,51 L9,31 C9,27.6862915 11.6862915,25 15,25 L16,25 L16,17 C16,9.2680135 22.2680135,3 30,3 Z M30,8 C25.1181973,8 21.1442086,11.8868137 21.0038371,16.7346377 L21,17 L21,25 L39,25 L39,17 C39,12.1181973 35.1131863,8.14420858 30.2653623,8.00383711 L30,8 Z" fill="#91AAB8"></path>
    </g>
</svg>
