<svg viewBox="0 0 18 18" xmlns="http://www.w3.org/2000/svg" fill="currentColor">
  <path
    d="M8.5 5.25v1.5h-4a2.25 2.25 0 00-2.245 2.096L2.25 9a2.25 2.25 0 002.096 2.245l.154.005h4v1.5h-4A3.75 3.75 0 01.755 9.2L.75 9A3.75 3.75 0 014.3 5.255l.2-.005h4zM9.5 5.25v1.5h4a2.25 2.25 0 012.245 2.096L15.75 9a2.25 2.25 0 01-2.096 2.245l-.154.005h-4v1.5h4a3.75 3.75 0 003.745-3.55l.005-.2a3.75 3.75 0 00-3.55-3.745l-.2-.005h-4z"
    fill-rule="nonzero" />
  <rect x="5" y="8" width="8" height="2" rx="1" />
</svg>
