<svg width="26px" height="26px" viewBox="0 0 26 26" version="1.1" xmlns="http://www.w3.org/2000/svg">
    <g stroke="none" stroke-width="1" fill="none" fill-rule="evenodd">
        <g transform="translate(0.000000, 2.000000)">
            <path d="M1,16.1006067 C0.44771525,16.1006067 6.76353751e-17,15.6528914 0,15.1006067 L0,6.89939331
            C-6.76353751e-17,6.34710856 0.44771525,5.89939331 1,5.89939331 L6,5.89939331 L11.1429428,0.652967656
            C11.236981,0.557037228 11.3656652,0.50298213 11.5,0.50298213 C11.7761424,0.50298213 12,0.726839755
            12,1.00298213 L12,1.00298213 L12,20.9970179 C12,21.1313527 11.9459449,21.2600369 11.8500145,21.3540751
            C11.6528172,21.5473828 11.3362504,21.5442296 11.1429428,21.3470323 L11.1429428,21.3470323 L6,16.1006067
            L1,16.1006067 Z" fill="#FFFFFF"></path>
            <path d="M16.5684186,15.7225651 C16.876315,15.26264 17.1405135,14.7709901 17.3550742,14.2535551 C17.7706393,13.2513777
            18,12.1524739 18,11 C18,9.8475261 17.7706393,8.74862227 17.3550742,7.74644488 C17.1405135,7.22900991 16.876315,6.73735996
            16.5684186,6.27743493" stroke="#FFFFFF" stroke-width="2" stroke-linecap="round"></path>
            <path d="M19.8994949,20.8994949 C20.5467932,20.2521967 21.1310004,19.5418074 21.6421013,18.7783425 C22.1492247,18.0208189
            22.5843751,17.2110425 22.9377693,16.3587967 C23.6222294,14.7081516 24,12.8981923 24,11 C24,9.1018077 23.6222294,7.29184845
            22.9377693,5.64120333 C22.5843751,4.7889575 22.1492247,3.97918111 21.6421013,3.22165753 C21.1310004,2.45819259
            20.5467932,1.74780332 19.8994949,1.10050506" stroke="#FFFFFF" stroke-width="2" stroke-linecap="round"></path>
        </g>
    </g>
</svg>