<svg width="24px" height="24px" viewBox="0 0 24 24" version="1.1" xmlns="http://www.w3.org/2000/svg">
    <g stroke="none" stroke-width="1" fill="none" fill-rule="evenodd">
        <path d="M12.8300396,1.20860441 C13.076322,1.35210029 13.2812049,1.55698315 13.4247008,1.80326561 L23.7477599,19.5207668
        C24.206256,20.3076853 23.9400171,21.3172932 23.1530987,21.7757893 C22.9010712,21.9226325 22.6146041,22 22.322918,22 L1.67679978,22
        C0.766053219,22 0.0277472566,21.261694 0.0277472566,20.3509475 C0.0277472566,20.0592614 0.105114717,19.7727943 0.251957926,19.5207668
        L10.5750171,1.80326561 C11.0335132,1.01634719 12.0431211,0.750108297 12.8300396,1.20860441 Z M12.8243852,17.148101 L11.1753326,17.148101
        L11.1753326,18.7654007 L12.8243852,18.7654007 L12.8243852,17.148101 Z M12.8243852,7.44430304 L11.1753326,7.44430304
        L11.1753326,15.5308014 L12.8243852,15.5308014 L12.8243852,7.44430304 Z" fill="#F7B500"></path>
    </g>
</svg>