<svg viewBox="0 0 20 20" xmlns="http://www.w3.org/2000/svg" fill="currentColor">
  <path
    d="M9.774 17.299c2.83 0 4.685-1.477 4.685-3.85v-.009c0-1.828-1.046-2.891-3.691-3.48L9.36 9.644C7.64 9.266 6.944 8.58 6.944 7.569v-.008c0-1.328 1.222-2.075 2.804-2.083 1.652-.01 2.707.817 2.883 1.933l.017.114h1.582l-.008-.123c-.132-1.89-1.899-3.383-4.43-3.383-2.62 0-4.456 1.485-4.465 3.585v.01c0 1.836 1.099 3.005 3.639 3.568l1.406.307c1.74.387 2.47 1.108 2.47 2.162v.01c0 1.291-1.257 2.179-2.98 2.179-1.828 0-3.146-.8-3.26-2.066l-.01-.096H5.012l.009.096C5.204 15.84 6.997 17.3 9.774 17.3z" />
  <path d="M3.99 11.79h12.468v-1.055H3.99z" />
</svg>
