<svg viewBox="0 0 20 20" xmlns="http://www.w3.org/2000/svg" fill="currentColor">
  <rect x="6" y="9" width="10" height="2" rx=".5" />
  <rect x="6" y="5" width="10" height="2" rx=".5" />
  <rect x="6" y="13" width="10" height="2" rx=".5" />
  <path
    d="M4.33 7V4.886h-.621l-.53.355v.52l.501-.331h.029V7zM4.872 11v-.475h-.86v-.029l.3-.246c.39-.32.534-.54.534-.78v-.007c0-.386-.325-.635-.828-.635-.52 0-.863.287-.863.722v.012h.566v-.014c0-.152.114-.26.275-.26.155 0 .25.083.25.22v.008c0 .111-.083.215-.407.501l-.647.57V11h1.68zM4.052 15.059c.564 0 .91-.257.91-.671v-.003c0-.274-.2-.446-.52-.48v-.011c.23-.045.433-.21.433-.477v-.003c0-.353-.32-.586-.828-.586-.492 0-.814.262-.84.673l-.002.022h.56l.001-.013c.013-.137.116-.23.281-.23.159 0 .257.088.257.22v.003c0 .13-.112.21-.304.21h-.218v.408H4c.216 0 .332.078.332.221v.003c0 .135-.106.232-.282.232-.175 0-.284-.093-.301-.211l-.003-.018h-.592l.001.02c.031.421.377.69.897.69z" />
</svg>
