<svg width="448px" height="78px" viewBox="0 0 448 78" version="1.1" xmlns="http://www.w3.org/2000/svg">
    <g stroke="none" stroke-width="1" fill="none" fill-rule="evenodd">
        <path d="M103.043806,0 L103.043236,14.1812473 L78.257666,38.9994291 L103.043236,63.8176109 L103.043806,78 L70.9955027,45.9094606 L38.9487526,78 L0,39 L38.9487526,0 L70.9955027,32.0887886 L103.043806,0 Z M108.051247,0 L147,39 L108.051247,78 L108.050677,63.8176109 L132.836247,38.9994291 L108.050677,14.1812473 L108.051247,0 Z M38.9487526,14.1818182 L14.1631828,39 L38.9487526,63.8181818 L63.7343225,39 L38.9487526,14.1818182 Z" fill="#000000" fill-rule="nonzero"></path>
        <polygon fill="#34BA9C" fill-rule="nonzero" points="108 19 128 38.5002356 108 58"></polygon>
        <path d="M206.141602,69 L206.141602,60.4746094 L173.666016,60.4746094 L173.666016,40.2158203 L201.65918,40.2158203 L201.65918,31.6464844 L173.666016,31.6464844 L173.666016,13.5849609 L205.833984,13.5849609 L205.833984,5.015625 L162.987305,5.015625 L162.987305,69 L206.141602,69 Z M226.108549,69.9228516 C227.456205,69.9228516 228.759916,69.7836914 230.019682,69.5053711 C231.279448,69.2270508 232.363432,68.8388672 233.271635,68.3408203 L233.271635,68.3408203 L232.129057,60.5185547 C231.63101,60.6943359 231.103666,60.8334961 230.547026,60.9360352 C229.990385,61.0385742 229.419096,61.0898438 228.833158,61.0898438 C227.426908,61.0898438 226.298979,60.6723633 225.449369,59.8374023 C224.59976,59.0024414 224.174955,57.6035156 224.174955,55.640625 L224.174955,55.640625 L224.174955,29.3613281 L232.700346,29.3613281 L232.700346,21.4511719 L224.174955,21.4511719 L224.174955,9.89355469 L213.54019,9.89355469 L213.54019,21.4511719 L206.289213,21.4511719 L206.289213,29.3613281 L213.54019,29.3613281 L213.54019,55.640625 C213.54019,60.5625 214.653471,64.1733398 216.880033,66.4731445 C219.106596,68.7729492 222.182768,69.9228516 226.108549,69.9228516 Z M249.854793,69 L249.854793,34.1953125 C250.938778,32.671875 252.308407,31.4780273 253.96368,30.6137695 C255.618954,29.7495117 257.486629,29.3173828 259.566708,29.3173828 C262.554989,29.3173828 264.7962,30.1523438 266.29034,31.8222656 C267.784481,33.4921875 268.531551,36.2021484 268.531551,39.9521484 L268.531551,39.9521484 L268.531551,69 L279.210262,69 L279.210262,40.0400391 C279.210262,33.4189453 277.796688,28.519043 274.96954,25.340332 C272.142391,22.1616211 268.209286,20.5722656 263.170223,20.5722656 C260.416317,20.5722656 257.90411,21.1875 255.633602,22.4179688 C253.363094,23.6484375 251.436825,25.3769531 249.854793,27.6035156 L249.854793,27.6035156 L249.854793,0.4453125 L239.176083,0.4453125 L239.176083,69 L249.854793,69 Z M307.790491,69.9228516 C311.686975,69.9228516 315.11471,69.3808594 318.073694,68.296875 C321.032678,67.2128906 323.405725,65.8798828 325.192835,64.2978516 L325.192835,64.2978516 L321.7651,57.3105469 C319.860803,58.6289062 317.883264,59.6396484 315.832483,60.3427734 C313.781702,61.0458984 311.320764,61.3974609 308.449671,61.3974609 C304.846155,61.3974609 302.026331,60.1962891 299.990198,57.7939453 C297.954065,55.3916016 296.848108,52.3007812 296.672327,48.5214844 L296.672327,48.5214844 L296.760218,48.3017578 L326.423303,48.3017578 L326.423303,42.0175781 C326.423303,35.484375 324.71676,30.2768555 321.303675,26.3950195 C317.890589,22.5131836 312.976038,20.5719848 306.560022,20.5719848 C300.58346,20.5429687 295.610315,22.8061523 291.640589,27.3618164 C287.670862,31.9174805 285.685999,37.6523438 285.685999,44.5664062 L285.685999,44.5664062 L285.685999,46.3242188 C285.685999,53.2382812 287.68551,58.8999023 291.684534,63.309082 C295.683557,67.7182617 301.05221,69.9228516 307.790491,69.9228516 Z M315.832483,40.4794922 L296.979944,40.4794922 L296.892053,40.2597656 C297.30221,37.0371094 298.356897,34.378418 300.056116,32.2836914 C301.755335,30.1889648 303.923303,29.1416016 306.560022,29.1416016 C309.665491,29.1416016 311.987268,30.09375 313.525354,31.9980469 C315.06344,33.9023438 315.832483,36.3632812 315.832483,39.3808594 L315.832483,39.3808594 L315.832483,40.4794922 Z M342.830681,69 L342.830681,35.953125 C343.592399,34.3417969 344.66906,33.0966797 346.060661,32.2177734 C347.452263,31.3388672 349.188103,30.8994141 351.268181,30.8994141 L351.268181,30.8994141 L355.838493,31.0751953 L357.112907,21.0996094 C356.644157,20.953125 356.131462,20.8286133 355.574821,20.7260742 C355.018181,20.6235352 354.417595,20.5722656 353.773063,20.5722656 C351.312126,20.5722656 349.136833,21.2607422 347.247185,22.6376953 C345.357536,24.0146484 343.812126,25.9189453 342.610954,28.3505859 L342.610954,28.3505859 L341.907829,21.4511719 L332.15197,21.4511719 L332.15197,69 L342.830681,69 Z M371.015402,69 L371.015402,34.5029297 C372.070089,32.8916016 373.417745,31.6245117 375.05837,30.7016602 C376.698995,29.7788086 378.559347,29.3173828 380.639425,29.3173828 C383.657003,29.3173828 385.905538,30.0717773 387.38503,31.5805664 C388.864523,33.0893555 389.604269,35.6308594 389.604269,39.2050781 L389.604269,39.2050781 L389.604269,69 L400.28298,69 L400.28298,39.1171875 C400.28298,32.7597656 398.898702,28.0795898 396.130148,25.0766602 C393.361593,22.0737305 389.50173,20.5722656 384.550558,20.5722656 C381.591573,20.5722656 378.932882,21.253418 376.574484,22.6157227 C374.216085,23.9780273 372.260519,25.875 370.707784,28.3066406 L370.707784,28.3066406 L370.09255,21.4511719 L360.336691,21.4511719 L360.336691,69 L371.015402,69 Z M421.875904,69.9228516 C424.834888,69.9228516 427.508228,69.168457 429.895923,67.659668 C432.283619,66.1508789 434.209888,64.2832031 435.674732,62.0566406 C435.762623,63.1992188 435.93108,64.3417969 436.180103,65.484375 C436.429126,66.6269531 436.744068,67.7988281 437.124927,69 L437.124927,69 L447.935474,69 C447.349537,67.2714844 446.924732,65.5063477 446.66106,63.7045898 C446.397388,61.902832 446.265552,60.0205078 446.265552,58.0576172 L446.265552,58.0576172 L446.265552,36.9199219 C446.265552,31.6464844 444.566333,27.6035156 441.167896,24.7910156 C437.769458,21.9785156 433.301685,20.5722656 427.764576,20.5722656 C422.051685,20.5722656 417.415455,22.0224609 413.855884,24.9228516 C410.296314,27.8232422 408.619068,31.1484375 408.824146,34.8984375 L408.824146,34.8984375 L408.868091,35.1621094 L419.151294,35.1621094 C419.151294,33.3164062 419.869068,31.8076172 421.304615,30.6357422 C422.740162,29.4638672 424.673755,28.8779297 427.105396,28.8779297 C429.830005,28.8779297 431.924732,29.5810547 433.389576,30.9873047 C434.854419,32.3935547 435.586841,34.3417969 435.586841,36.8320312 L435.586841,36.8320312 L435.586841,41.0068359 L427.281177,41.0068359 C420.68938,41.0068359 415.577076,42.2885742 411.944263,44.8520508 C408.311451,47.4155273 406.495044,50.9970703 406.495044,55.5966797 C406.495044,60.0498047 407.820728,63.5507812 410.472095,66.0996094 C413.123462,68.6484375 416.924732,69.9228516 421.875904,69.9228516 Z M424.029224,61.3535156 C421.831958,61.3535156 420.140064,60.8188477 418.95354,59.7495117 C417.767017,58.6801758 417.173755,57.2373047 417.173755,55.4208984 C417.173755,53.3408203 418.052662,51.5317383 419.810474,49.9936523 C421.568287,48.4555664 423.999927,47.6865234 427.105396,47.6865234 L427.105396,47.6865234 L435.586841,47.6865234 L435.586841,54.7177734 C434.883716,56.4462891 433.455494,57.984375 431.302173,59.3320312 C429.148853,60.6796875 426.724537,61.3535156 424.029224,61.3535156 Z" id="Etherna" fill="#000000" fill-rule="nonzero"></path>
    </g>
</svg>