<svg width="360px" height="256px" viewBox="0 0 360 256" version="1.1" xmlns="http://www.w3.org/2000/svg">
    <g stroke="none" stroke-width="1" fill="none" fill-rule="evenodd">
        <rect fill="#AFB5B8" x="0" y="0" width="360" height="256"></rect>
        <g transform="translate(118.000000, 95.000000)" fill-rule="nonzero">
            <path d="M87.6222841,0 L87.622,12.059 L87.6217992,12.0588837 L66.5456344,33.1627798 L87.6217992,54.2666759 L87.622,54.265 L87.6222841,66.3265306
                L60.3703254,39.038657 L33.1196876,66.3265306 L0,33.1632653 L33.1196876,0 L60.3703254,27.2863848 L87.6222841,0 Z M91.8803124,0 L125,33.1632653
                L91.8803124,66.3265306 L91.8798275,54.2666759 L112.955992,33.1627798 L91.8798275,12.0588837 L91.8803124,0 Z M33.1196876,12.0593692 L12.0435228,33.1632653
                L33.1196876,54.2671614 L54.1958525,33.1632653 L33.1196876,12.0593692 Z" fill="#4D4D4D"></path>
            <polygon fill="#8F8F8F" points="91.8367347 16.1564626 108.843537 32.7382956 91.8367347 49.3197279"></polygon>
        </g>
    </g>
</svg>