<svg width="24px" height="24px" viewBox="0 0 24 24" version="1.1" xmlns="http://www.w3.org/2000/svg">
    <g stroke="none" stroke-width="1" fill="none" fill-rule="evenodd">
        <circle fill="#32C5FF" cx="12" cy="12" r="12"></circle>
        <path d="M19,6 C19.5522847,6 20,6.44771525 20,7 L20,9 L19.5,9 L19.5,7.5 C19.5,6.94771525 19.0522847,6.5 18.5,6.5 L5.5,6.5 C4.98716416,6.5 4.56449284,6.88604019
        4.50672773,7.38337887 L4.5,7.5 L4.5,16.5 C4.5,17.0128358 4.88604019,17.4355072 5.38337887,17.4932723 L5.5,17.5 L18.5,17.5 C19.0128358,17.5 19.4355072,17.1139598
        19.4932723,16.6166211 L19.5,16.5 L19.5,15 L20,15 L20,17 C20,17.5522847 19.5522847,18 19,18 L5,18 C4.44771525,18 4,17.5522847 4,17 L4,7 C4,6.44771525 4.44771525,6
        5,6 L19,6 Z M18,7 C18.5522847,7 19,7.44771525 19,8 L19,9 L17,9 C16.4871642,9 16.0644928,9.38604019 16.0067277,9.88337887 L16,10 L16,14 C16,14.5128358 16.3860402,14.9355072
        16.8833789,14.9932723 L17,15 L19,15 L19,16 C19,16.5522847 18.5522847,17 18,17 L6,17 C5.44771525,17 5,16.5522847 5,16 L5,8 C5,7.44771525 5.44771525,7 6,7 L18,7 Z M8.5,9
        C7.67157288,9 7,9.67157288 7,10.5 C7,11.1029711 7.35577672,11.6228461 7.86885943,11.8611543 L8.00029246,11.9147505 L8.00021935,12.6860609 L8.25,13.0716585 L8.00014623,13.4573713
        L8.25,13.843086 L8.00007312,14.2286856 L8.5,15 L9.0001733,14.23 L9.00070296,11.9143985 C9.58293192,11.7082819 10,11.1528467 10,10.5 C10,9.67157288 9.32842712,9 8.5,9
        Z M20,9.5 L20,14.5 L17.5,14.5 C16.9477153,14.5 16.5,14.0522847 16.5,13.5 L16.5,10.5 C16.5,9.94771525 16.9477153,9.5 17.5,9.5 L20,9.5 Z M18,11.5 C17.7238576,11.5
        17.5,11.7238576 17.5,12 C17.5,12.2761424 17.7238576,12.5 18,12.5 C18.2761424,12.5 18.5,12.2761424 18.5,12 C18.5,11.7238576 18.2761424,11.5 18,11.5 Z M8.5,9.5
        C8.77614237,9.5 9,9.72385763 9,10 C9,10.2761424 8.77614237,10.5 8.5,10.5 C8.22385763,10.5 8,10.2761424 8,10 C8,9.72385763 8.22385763,9.5 8.5,9.5 Z" fill="#FFFFFF"></path>
    </g>
</svg>