<svg width="26px" height="26px" viewBox="0 0 26 26" version="1.1" xmlns="http://www.w3.org/2000/svg">
    <g stroke="none" stroke-width="1" fill="none" fill-rule="evenodd">
        <g id="pause-icon" transform="translate(0.000000, 2.000000)">
            <path d="M1,16.1006067 C0.44771525,16.1006067 6.76353751e-17,15.6528914 0,15.1006067 L0,6.89939331 C-6.76353751e-17,6.34710856
            0.44771525,5.89939331 1,5.89939331 L6,5.89939331 L11.1429428,0.652967656 C11.236981,0.557037228 11.3656652,0.50298213 11.5,0.50298213
            C11.7761424,0.50298213 12,0.726839755 12,1.00298213 L12,1.00298213 L12,20.9970179 C12,21.1313527 11.9459449,21.2600369 11.8500145,21.3540751
            C11.6528172,21.5473828 11.3362504,21.5442296 11.1429428,21.3470323 L11.1429428,21.3470323 L6,16.1006067 L1,16.1006067 Z" fill="#FFFFFF"></path>
            <path d="M16.5684186,15.7225651 C16.876315,15.26264 17.1405135,14.7709901 17.3550742,14.2535551 C17.7706393,13.2513777
            18,12.1524739 18,11 C18,9.8475261 17.7706393,8.74862227 17.3550742,7.74644488 C17.1405135,7.22900991 16.876315,6.73735996
            16.5684186,6.27743493" stroke="#FFFFFF" stroke-width="2" stroke-linecap="round"></path>
        </g>
    </g>
</svg>