<svg xmlns="http://www.w3.org/2000/svg" viewBox="0 0 26 26" fill="none">
  <rect stroke="currentColor" stroke-width="2.5" x="2" y="4" width="22" height="18" rx="2" />
  <path
    d="M16.836 19.086a.75.75 0 01-.102-1.493l1.79-.007-3.304-3.306a.75.75 0 01.976-1.133l3.39 3.378v-1.69a.75.75 0 01.75-.75c.38 0 .7.283.75.649v3.602c0 .38-.282.7-.648.75h-3.602zM9.25 7a.75.75 0 01.102 1.493L7.56 8.5l3.305 3.305a.75.75 0 01-.976 1.134L6.5 9.56v1.689a.75.75 0 01-.75.75c-.38 0-.7-.282-.75-.648V7.75c0-.38.282-.7.648-.75H9.25z"
    fill="currentColor" fill-rule="nonzero" />
</svg>
