<svg viewBox="0 0 26 26" xmlns="http://www.w3.org/2000/svg" fill="currentColor">
  <path
    d="M21.7120253,1 C22.9132044,1 23.9134059,1.91539065 23.9946706,3.09472982 L24,3.25 L24,12 L21.5,12 L21.5,3.5 L3.5,3.5 L3.5,19.5 L9,19.5 L9,22 L3.28797468,22 C2.08679557,22 1.08659412,21.0846094 1.00532938,19.9052702 L1,19.75 L1,3.25 C1,2.04894024 1.95015232,1.08350544 3.13249792,1.00513771 L3.28797468,1 L21.7120253,1 Z"
    fill-rule="nonzero"></path>
  <rect id="Rectangle" x="11" y="14" width="14" height="11" rx="1"></rect>
  <path
    d="M9.5,12.25 C9.08578644,12.25 8.75,11.9142136 8.75,11.5 C8.75,11.1203042 9.03215388,10.806509 9.39822944,10.7568466 L9.5,10.75 L10.689,10.75 L5.96966991,6.03033009 C5.6767767,5.73743687 5.6767767,5.26256313 5.96966991,4.96966991 C6.23593648,4.70340335 6.65260016,4.6791973 6.94621165,4.89705176 L7.03033009,4.96966991 L11.75,9.689 L11.75,8.5 C11.75,8.08578644 12.0857864,7.75 12.5,7.75 C12.8796958,7.75 13.193491,8.03215388 13.2431534,8.39822944 L13.25,8.5 L13.25,11.5 C13.25,11.8796958 12.9678461,12.193491 12.6017706,12.2431534 L12.5,12.25 L9.5,12.25 Z"
    fill-rule="nonzero"></path>
</svg>
