<svg xmlns="http://www.w3.org/2000/svg" viewBox="0 0 26 26" fill="none">
  <rect fill="currentColor" x="11" y="14" width="14" height="11" rx="2" />
  <path d="M9 22h0-5a2 2 0 01-2-2V6a2 2 0 012-2h18a2 2 0 012 2v6h0" stroke="currentColor" stroke-width="2"
    stroke-linecap="round" />
  <path
    d="M6.836 13.086a.75.75 0 01-.102-1.493l1.79-.007L5.22 8.28a.75.75 0 01.976-1.133l3.39 3.378v-1.69a.75.75 0 01.75-.75c.38 0 .7.283.75.649v3.602c0 .38-.282.7-.648.75H6.836z"
    fill="currentColor" fill-rule="nonzero" />
</svg>
