<svg viewBox="0 0 20 20" xmlns="http://www.w3.org/2000/svg" fill="currentColor">
  <path
    d="M3 6.25C3 5.56 3.448 5 4 5s1 .56 1 1.25v7.5C5 14.44 4.552 15 4 15s-1-.56-1-1.25v-7.5zM7 3c-.552 0-1 .522-1 1.167v11.666C6 16.478 6.448 17 7 17s1-.522 1-1.167V4.167C8 3.522 7.552 3 7 3zM9 16a2 2 0 002 2h4a2 2 0 002-2V4a2 2 0 00-2-2h-4a2 2 0 00-2 2v12zm2.265-3.5a.266.266 0 01-.258-.21L11 12.228V7.772c0-.051.014-.101.04-.144a.261.261 0 01.3-.117l.065.03 3.47 2.228a.278.278 0 01.055.415l-.054.047-3.471 2.228a.26.26 0 01-.14.041z" />
</svg>
