<svg viewBox="0 0 20 20" xmlns="http://www.w3.org/2000/svg" fill="currentColor">
  <path
    d="M14.25 5a1.5 1.5 0 011.488 1.69L18.1 9.055A1.501 1.501 0 0120 10.5a1.5 1.5 0 01-1.9 1.446l-2.362 2.363a1.5 1.5 0 11-2.978.013l-2.768-2.769-2.754 2.755a1.5 1.5 0 11-2.977.014L1.887 11.95A1.502 1.502 0 010 10.5a1.5 1.5 0 011.889-1.45L4.26 6.679a1.5 1.5 0 112.978.013l2.754 2.755 2.768-2.77A1.5 1.5 0 0114.25 5zm-.577 2.885L11.06 10.5l2.615 2.615a1.495 1.495 0 011.138-.005l2.234-2.235a1.503 1.503 0 010-.75L14.815 7.89a1.496 1.496 0 01-1.14-.005zm-8.5 0L2.95 10.11a1.502 1.502 0 010 .779l2.226 2.225a1.495 1.495 0 011.138-.005l2.611-2.61-2.61-2.609a1.496 1.496 0 01-1.14-.005z"
    fill-rule="nonzero" />
</svg>
