<svg xmlns="http://www.w3.org/2000/svg" viewBox="0 0 20 20" fill="currentColor">
  <path
    d="M10.544 8.925a2.001 2.001 0 01-1.202-.036L7.49 11.666c.21.235.366.52.447.834h4.126c.052-.2.133-.388.24-.56l-1.759-3.015z" />
  <path fill-rule="evenodd" clip-rule="evenodd"
    d="M3.848 2.573A3.146 3.146 0 016.573 1h6.854c1.124 0 2.162.6 2.724 1.573l3.427 5.936a3.146 3.146 0 010 3.146l-3.427 5.935a3.146 3.146 0 01-2.724 1.573H6.573c-1.124 0-2.163-.6-2.725-1.573L.421 11.655a3.146 3.146 0 010-3.146l3.427-5.936zm4.662 5.76a2 2 0 112.898.087l1.643 2.819a2 2 0 11-.989 2.261H7.938a2 2 0 11-1.279-2.39L8.51 8.335z" />
</svg>
