<svg viewBox="0 0 460 93" xmlns="http://www.w3.org/2000/svg">
  <path
    d="M121.539.329v17.063L93.384 45.547a1.207 1.207 0 00-.1 1.593l.1.113 28.155 28.155v17.064L84.316 55.248l-36.5 36.502a2.467 2.467 0 01-3.332.144l-.156-.144L.722 48.145a2.467 2.467 0 01-.144-3.332l.144-.157L44.328 1.051a2.467 2.467 0 013.331-.144l.157.144 36.5 36.5L121.539.33zm3.696 0L169.6 44.694c.893.893.94 2.311.141 3.26l-.14.153-44.366 44.365V75.408l28.155-28.155c.435-.435.468-1.119.1-1.592l-.1-.114-28.155-28.155V.33zm-79.92 17.19l-.115.102L17.292 45.53a1.234 1.234 0 00-.102 1.628l.102.116L45.2 75.18a1.234 1.234 0 001.628.103l.116-.103L74.85 47.273a1.234 1.234 0 00.103-1.628l-.103-.116L46.944 17.62a1.234 1.234 0 00-1.628-.102z"
    fill="currentColor" />
  <path d="M148.602 47.312l-23.367 23.367v-48.15l23.367 23.367a1.001 1.001 0 010 1.416z" fill="#37C4A5" />
  <path
    d="M220.12 81V69.45h-22.44V51.19h18.37V39.64h-18.37V22.59h21.56V11.04h-37.29V81h38.17zm28.58 0V69.23h-4.18c-1.98 0-2.97-.88-2.97-2.64V38.1h7.15V26.55h-7.15V16.43h-15.29v10.12h-5.72V38.1h5.72v30.69c0 8.14 4.62 12.21 13.86 12.21h8.58zm19.01 0V41.62c0-2.347 1.063-3.52 3.19-3.52h2.64c1.98 0 2.97.917 2.97 2.75V81h15.4V38.76c0-8.14-4.29-12.21-12.87-12.21h-2.75c-4.62 0-7.48 1.797-8.58 5.39V7.41h-15.29V81h15.29zm56.41 0c9.313 0 13.97-4.07 13.97-12.21v-5.28h-14.74v3.63c0 1.027-.22 1.76-.66 2.2-.44.44-1.173.66-2.2.66h-4.95c-1.1 0-1.87-.202-2.31-.605-.44-.403-.66-1.082-.66-2.035v-9.35h25.63V38.76c0-8.14-4.657-12.21-13.97-12.21H311.8c-9.24 0-13.86 4.07-13.86 12.21v30.03c0 8.14 4.62 12.21 13.86 12.21h12.32zm-.66-32.01h-10.89v-8.8c0-.953.22-1.632.66-2.035.44-.403 1.21-.605 2.31-.605h5.06c1.027 0 1.76.202 2.2.605.44.403.66 1.082.66 2.035v8.8zM359.19 81V47.23c0-5.133 2.31-7.7 6.93-7.7h5.39V26.22h-1.87c-2.86 0-5.207.752-7.04 2.255-1.833 1.503-3.043 3.465-3.63 5.885v-7.81H343.9V81h15.29zm30.78 0V41.62c0-2.347 1.063-3.52 3.19-3.52h2.64c1.98 0 2.97.917 2.97 2.75V81h15.4V38.76c0-8.14-4.29-12.21-12.87-12.21h-2.75c-4.84 0-7.773 2.053-8.8 6.16v-6.16h-15.07V81h15.29zm45.52 0c4.693 0 7.59-1.797 8.69-5.39V81h15.29V26.55H444.4v6.16c-1.027-4.107-3.997-6.16-8.91-6.16h-2.64c-8.58 0-12.87 4.07-12.87 12.21v30.03c0 8.14 4.29 12.21 12.87 12.21h2.64zm5.39-11.55h-2.53c-1.98 0-2.97-.917-2.97-2.75V40.85c0-1.833.99-2.75 2.97-2.75h2.53c2.2 0 3.3 1.173 3.3 3.52v24.31c0 2.347-1.1 3.52-3.3 3.52z"
    fill="currentColor" />
</svg>
