<svg xmlns="http://www.w3.org/2000/svg" viewBox="0 0 711 512">
  <path
    d="M166.786 422.71C74.666 422.71 0 348.046 0 255.91 0 163.83 74.667 89.168 166.786 89.168c37.383 0 71.91 12.282 99.723 33.058h.071V0C456.213 0 621.618 102.882 710.12 256.028 621.576 409.061 456.105 512 266.58 512V389.863c-27.808 20.748-62.416 32.846-99.794 32.846zM497.1 275.046c-10.45 53.849-62.585 89.004-116.422 78.54a99.235 99.235 0 01-39.55-17.21l62.26-41.99c43.32-29.22 56.608-86.323 31.555-131.07 44.375 16.805 71.534 63.606 62.157 111.73zm-366.04 73.636c-25.057-44.752-11.779-101.86 31.56-131.07l62.26-41.99a99.25 99.25 0 00-39.545-17.215c-53.85-10.463-105.967 24.691-116.432 78.53-9.376 48.149 17.782 94.926 62.157 111.745zm151.944-132.676l46.053-30.632c15.228-10.27 35.969-6.073 46.226 9.12 10.253 15.204 6.281 35.961-8.938 46.236l-83.34 55.276v79.67c30.036 29.182 71.029 47.16 116.219 47.16 92.1 0 166.78-74.682 166.78-166.809 0-92.08-74.68-166.737-166.78-166.737-45.186 0-86.183 17.85-116.22 47.036v79.68zm-16.496 90.949V227.04L199.65 271.27c-15.214 10.28-19.181 31.032-8.915 46.235 10.234 15.198 30.985 19.391 46.208 9.126l29.566-19.674z"
    class="svg-symbol" />
</svg>
